<svg xmlns="http://www.w3.org/2000/svg" xmlns:xlink="http://www.w3.org/1999/xlink" width="50" zoomAndPan="magnify" viewBox="0 0 37.5 37.499999" height="50" preserveAspectRatio="xMidYMid meet" version="1.0"><defs><g/><clipPath id="id1"><path d="M 8.71875 18 L 28.96875 18 L 28.96875 25.804688 L 8.71875 25.804688 Z M 8.71875 18 " clip-rule="nonzero"/></clipPath><clipPath id="id2"><path d="M 17 4.804688 L 23 4.804688 L 23 10 L 17 10 Z M 17 4.804688 " clip-rule="nonzero"/></clipPath></defs><g clip-path="url(#id1)"><path fill="#02084b" d="M 28.683594 21.847656 C 28.550781 21.476562 28.304688 21.164062 28 20.96875 C 27.632812 20.738281 27.203125 20.6875 26.78125 20.824219 L 22.5 21.898438 C 22.675781 21.164062 22.371094 20.496094 21.710938 20.25 C 21.695312 20.242188 21.675781 20.238281 21.65625 20.234375 L 16.347656 18.953125 C 15.542969 18.761719 14.683594 18.828125 13.921875 19.144531 L 12.847656 19.589844 L 12.847656 18.960938 C 12.847656 18.710938 12.640625 18.507812 12.382812 18.507812 L 9.207031 18.507812 C 8.949219 18.507812 8.742188 18.710938 8.742188 18.960938 L 8.742188 25.179688 C 8.742188 25.429688 8.949219 25.632812 9.207031 25.632812 L 12.382812 25.632812 C 12.640625 25.632812 12.847656 25.429688 12.847656 25.179688 L 12.847656 24.933594 L 13.886719 24.816406 C 14.347656 24.765625 14.816406 24.785156 15.273438 24.878906 L 19.292969 25.695312 C 19.648438 25.765625 20.011719 25.804688 20.371094 25.804688 C 20.894531 25.804688 21.417969 25.726562 21.921875 25.578125 L 27.816406 23.820312 C 27.824219 23.816406 27.828125 23.816406 27.835938 23.8125 C 28.742188 23.503906 28.949219 22.589844 28.683594 21.847656 Z M 11.917969 24.726562 L 9.671875 24.726562 L 9.671875 19.414062 L 11.917969 19.414062 Z M 27.535156 22.957031 L 21.648438 24.710938 C 20.949219 24.921875 20.199219 24.953125 19.484375 24.808594 L 15.464844 23.992188 C 14.910156 23.878906 14.34375 23.851562 13.78125 23.914062 L 12.847656 24.019531 L 12.847656 20.574219 L 14.285156 19.976562 C 14.863281 19.738281 15.515625 19.6875 16.125 19.835938 L 21.402344 21.105469 C 21.765625 21.265625 21.558594 21.808594 21.550781 21.832031 C 21.480469 22.003906 21.371094 22.148438 21.246094 22.230469 C 21.144531 22.296875 21.042969 22.308594 20.929688 22.269531 C 20.910156 22.261719 20.886719 22.253906 20.867188 22.25 L 17.929688 21.542969 C 17.679688 21.480469 17.425781 21.628906 17.367188 21.875 C 17.304688 22.117188 17.457031 22.363281 17.707031 22.421875 L 20.617188 23.121094 C 20.761719 23.171875 20.910156 23.199219 21.054688 23.199219 C 21.28125 23.199219 21.5 23.136719 21.699219 23.023438 C 21.730469 23.023438 21.761719 23.019531 21.792969 23.011719 L 27.03125 21.699219 C 27.042969 21.695312 27.058594 21.691406 27.070312 21.6875 C 27.226562 21.632812 27.363281 21.648438 27.492188 21.726562 C 27.625 21.8125 27.742188 21.964844 27.804688 22.148438 C 27.828125 22.214844 28.019531 22.785156 27.535156 22.957031 Z M 27.535156 22.957031 " fill-opacity="1" fill-rule="nonzero"/></g><g clip-path="url(#id2)"><path fill="#02084b" d="M 19.925781 4.804688 C 18.503906 4.804688 17.347656 5.929688 17.347656 7.316406 C 17.347656 8.703125 18.503906 9.832031 19.925781 9.832031 C 21.351562 9.832031 22.507812 8.703125 22.507812 7.316406 C 22.507812 5.929688 21.351562 4.804688 19.925781 4.804688 Z M 19.925781 8.925781 C 19.019531 8.925781 18.277344 8.203125 18.277344 7.316406 C 18.277344 6.429688 19.015625 5.710938 19.925781 5.710938 C 20.835938 5.710938 21.578125 6.429688 21.578125 7.316406 C 21.578125 8.203125 20.835938 8.925781 19.925781 8.925781 Z M 19.925781 8.925781 " fill-opacity="1" fill-rule="nonzero"/></g><path fill="#02084b" d="M 24.714844 9 C 23.292969 9 22.132812 10.128906 22.132812 11.515625 C 22.132812 12.902344 23.292969 14.027344 24.714844 14.027344 C 26.136719 14.027344 27.292969 12.902344 27.292969 11.515625 C 27.292969 10.128906 26.136719 9 24.714844 9 Z M 24.714844 13.121094 C 23.804688 13.121094 23.0625 12.402344 23.0625 11.515625 C 23.0625 10.628906 23.804688 9.90625 24.714844 9.90625 C 25.625 9.90625 26.363281 10.628906 26.363281 11.515625 C 26.363281 12.402344 25.625 13.121094 24.714844 13.121094 Z M 24.714844 13.121094 " fill-opacity="1" fill-rule="nonzero"/><path fill="#02084b" d="M 19.925781 13.597656 C 18.503906 13.597656 17.347656 14.726562 17.347656 16.113281 C 17.347656 17.5 18.503906 18.628906 19.925781 18.628906 C 21.351562 18.628906 22.507812 17.5 22.507812 16.113281 C 22.507812 14.726562 21.351562 13.597656 19.925781 13.597656 Z M 19.925781 17.722656 C 19.019531 17.722656 18.277344 17 18.277344 16.113281 C 18.277344 15.226562 19.015625 14.503906 19.925781 14.503906 C 20.835938 14.503906 21.578125 15.226562 21.578125 16.113281 C 21.578125 17 20.835938 17.722656 19.925781 17.722656 Z M 19.925781 17.722656 " fill-opacity="1" fill-rule="nonzero"/><g fill="#02084b" fill-opacity="1"><g transform="translate(2.874223, 33.017675)"><g><path d="M 3.59375 0.0742188 C 5.683594 0.0742188 6.71875 -0.75 6.871094 -2.21875 L 5.671875 -2.21875 C 5.535156 -1.28125 4.792969 -0.921875 3.59375 -0.921875 C 2.175781 -0.921875 1.476562 -1.417969 1.476562 -2.632812 C 1.476562 -3.839844 2.167969 -4.328125 3.59375 -4.328125 C 4.800781 -4.328125 5.535156 -3.976562 5.671875 -3.046875 L 6.863281 -3.046875 C 6.71875 -4.507812 5.683594 -5.324219 3.59375 -5.324219 C 1.28125 -5.324219 0.292969 -4.34375 0.292969 -2.632812 C 0.292969 -0.914062 1.28125 0.0742188 3.59375 0.0742188 Z M 3.59375 0.0742188 "/></g></g></g><g fill="#02084b" fill-opacity="1"><g transform="translate(10.036798, 33.017675)"><g><path d="M 0.367188 0 L 5.765625 0 L 5.765625 -0.996094 L 1.550781 -0.996094 L 1.550781 -5.25 L 0.367188 -5.25 Z M 0.367188 0 "/></g></g></g><g fill="#02084b" fill-opacity="1"><g transform="translate(16.096865, 33.017675)"><g><path d="M 0.292969 0 L 1.605469 0 L 2.242188 -1.164062 L 5.585938 -1.164062 L 6.226562 0 L 7.539062 0 L 4.679688 -5.25 L 3.148438 -5.25 Z M 2.699219 -2.078125 L 3.914062 -4.28125 L 5.128906 -2.078125 Z M 2.699219 -2.078125 "/></g></g></g><g fill="#02084b" fill-opacity="1"><g transform="translate(23.926948, 33.017675)"><g><path d="M 0.367188 0 L 1.550781 0 L 1.550781 -5.25 L 0.367188 -5.25 Z M 0.367188 0 "/></g></g></g><g fill="#02084b" fill-opacity="1"><g transform="translate(25.846968, 33.017675)"><g><path d="M 0.367188 0 L 1.550781 0 L 1.550781 -3.847656 L 3.945312 0 L 4.835938 0 L 7.222656 -3.847656 L 7.222656 0 L 8.40625 0 L 8.40625 -5.25 L 6.742188 -5.25 L 4.386719 -1.371094 L 2.03125 -5.25 L 0.367188 -5.25 Z M 0.367188 0 "/></g></g></g></svg>