<svg xmlns="http://www.w3.org/2000/svg" xmlns:xlink="http://www.w3.org/1999/xlink" width="50" zoomAndPan="magnify" viewBox="0 0 37.5 37.499999" height="50" preserveAspectRatio="xMidYMid meet" version="1.0"><defs><g/><clipPath id="id1"><path d="M 8.15625 10 L 29.15625 10 L 29.15625 24.953125 L 8.15625 24.953125 Z M 8.15625 10 " clip-rule="nonzero"/></clipPath><clipPath id="id2"><path d="M 22 14 L 29.15625 14 L 29.15625 21 L 22 21 Z M 22 14 " clip-rule="nonzero"/></clipPath><clipPath id="id3"><path d="M 10 4.703125 L 27 4.703125 L 27 11 L 10 11 Z M 10 4.703125 " clip-rule="nonzero"/></clipPath><clipPath id="id4"><path d="M 8.15625 7 L 17 7 L 17 14 L 8.15625 14 Z M 8.15625 7 " clip-rule="nonzero"/></clipPath><clipPath id="id5"><path d="M 23 7 L 29.15625 7 L 29.15625 14 L 23 14 Z M 23 7 " clip-rule="nonzero"/></clipPath></defs><g clip-path="url(#id1)"><path fill="#02084b" d="M 26.085938 24.996094 L 11.226562 24.996094 C 9.539062 24.996094 8.164062 23.613281 8.164062 21.914062 L 8.164062 13.109375 C 8.164062 11.410156 9.539062 10.027344 11.226562 10.027344 L 26.085938 10.027344 C 27.773438 10.027344 29.144531 11.410156 29.144531 13.109375 L 29.144531 21.914062 C 29.144531 23.613281 27.773438 24.996094 26.085938 24.996094 Z M 11.226562 10.910156 C 10.019531 10.910156 9.039062 11.898438 9.039062 13.109375 L 9.039062 21.914062 C 9.039062 23.128906 10.019531 24.117188 11.226562 24.117188 L 26.085938 24.117188 C 27.289062 24.117188 28.269531 23.128906 28.269531 21.914062 L 28.269531 13.109375 C 28.269531 11.898438 27.289062 10.910156 26.085938 10.910156 Z M 11.226562 10.910156 " fill-opacity="1" fill-rule="nonzero"/></g><path fill="#02084b" d="M 25.210938 18.832031 C 24.488281 18.832031 23.898438 18.242188 23.898438 17.511719 C 23.898438 16.785156 24.488281 16.191406 25.210938 16.191406 C 25.933594 16.191406 26.523438 16.785156 26.523438 17.511719 C 26.523438 18.242188 25.933594 18.832031 25.210938 18.832031 Z M 25.210938 17.070312 C 24.972656 17.070312 24.773438 17.269531 24.773438 17.511719 C 24.773438 17.753906 24.972656 17.953125 25.210938 17.953125 C 25.453125 17.953125 25.648438 17.753906 25.648438 17.511719 C 25.648438 17.269531 25.453125 17.070312 25.210938 17.070312 Z M 25.210938 17.070312 " fill-opacity="1" fill-rule="nonzero"/><g clip-path="url(#id2)"><path fill="#02084b" d="M 28.707031 20.59375 L 25.210938 20.59375 C 23.523438 20.59375 22.152344 19.210938 22.152344 17.511719 C 22.152344 15.8125 23.523438 14.429688 25.210938 14.429688 L 28.707031 14.429688 C 28.949219 14.429688 29.144531 14.628906 29.144531 14.871094 L 29.144531 20.152344 C 29.144531 20.398438 28.949219 20.59375 28.707031 20.59375 Z M 25.210938 15.3125 C 24.007812 15.3125 23.027344 16.300781 23.027344 17.511719 C 23.027344 18.726562 24.007812 19.714844 25.210938 19.714844 L 28.269531 19.714844 L 28.269531 15.3125 Z M 25.210938 15.3125 " fill-opacity="1" fill-rule="nonzero"/></g><g clip-path="url(#id3)"><path fill="#02084b" d="M 25.648438 10.910156 C 25.488281 10.910156 25.335938 10.820312 25.257812 10.667969 L 23.40625 6.9375 C 23.140625 6.402344 22.679688 6.003906 22.113281 5.824219 C 21.546875 5.644531 20.941406 5.699219 20.417969 5.984375 L 11.433594 10.855469 C 11.21875 10.972656 10.953125 10.890625 10.839844 10.675781 C 10.726562 10.464844 10.804688 10.195312 11.019531 10.082031 L 20 5.210938 C 20.738281 4.8125 21.582031 4.730469 22.375 4.984375 C 23.171875 5.238281 23.816406 5.792969 24.1875 6.542969 L 26.039062 10.273438 C 26.148438 10.488281 26.058594 10.753906 25.84375 10.863281 C 25.78125 10.894531 25.714844 10.910156 25.648438 10.910156 Z M 25.648438 10.910156 " fill-opacity="1" fill-rule="nonzero"/></g><path fill="#02084b" d="M 17.40625 10.910156 C 17.25 10.910156 17.101562 10.824219 17.019531 10.675781 C 16.90625 10.464844 16.988281 10.195312 17.199219 10.082031 L 23.691406 6.558594 C 23.90625 6.445312 24.171875 6.523438 24.285156 6.738281 C 24.398438 6.953125 24.320312 7.21875 24.109375 7.335938 L 17.613281 10.855469 C 17.546875 10.890625 17.476562 10.910156 17.40625 10.910156 Z M 17.40625 10.910156 " fill-opacity="1" fill-rule="nonzero"/><g clip-path="url(#id4)"><path fill="#02084b" d="M 8.601562 13.550781 C 8.359375 13.550781 8.164062 13.351562 8.164062 13.109375 L 8.164062 12.230469 C 8.164062 9.558594 10.324219 7.386719 12.972656 7.386719 L 16.03125 7.386719 C 16.273438 7.386719 16.46875 7.585938 16.46875 7.828125 C 16.46875 8.070312 16.273438 8.269531 16.03125 8.269531 L 12.972656 8.269531 C 10.804688 8.269531 9.039062 10.046875 9.039062 12.230469 L 9.039062 13.109375 C 9.039062 13.351562 8.84375 13.550781 8.601562 13.550781 Z M 8.601562 13.550781 " fill-opacity="1" fill-rule="nonzero"/></g><g clip-path="url(#id5)"><path fill="#02084b" d="M 28.707031 13.550781 C 28.464844 13.550781 28.269531 13.351562 28.269531 13.109375 L 28.269531 12.230469 C 28.269531 10.046875 26.507812 8.269531 24.335938 8.269531 C 24.097656 8.269531 23.898438 8.070312 23.898438 7.828125 C 23.898438 7.585938 24.097656 7.386719 24.335938 7.386719 C 26.988281 7.386719 29.144531 9.558594 29.144531 12.230469 L 29.144531 13.109375 C 29.144531 13.351562 28.949219 13.550781 28.707031 13.550781 Z M 28.707031 13.550781 " fill-opacity="1" fill-rule="nonzero"/></g><g fill="#02084b" fill-opacity="1"><g transform="translate(2.164569, 30.97599)"><g><path d="M 2.394531 0.0507812 C 3.789062 0.0507812 4.480469 -0.5 4.578125 -1.480469 L 3.78125 -1.480469 C 3.691406 -0.855469 3.195312 -0.613281 2.394531 -0.613281 C 1.449219 -0.613281 0.984375 -0.945312 0.984375 -1.753906 C 0.984375 -2.558594 1.445312 -2.886719 2.394531 -2.886719 C 3.199219 -2.886719 3.691406 -2.648438 3.78125 -2.03125 L 4.574219 -2.03125 C 4.480469 -3.003906 3.789062 -3.550781 2.394531 -3.550781 C 0.855469 -3.550781 0.195312 -2.894531 0.195312 -1.753906 C 0.195312 -0.609375 0.855469 0.0507812 2.394531 0.0507812 Z M 2.394531 0.0507812 "/></g></g></g><g fill="#02084b" fill-opacity="1"><g transform="translate(6.939603, 30.97599)"><g><path d="M 2.394531 0.0507812 C 3.929688 0.0507812 4.59375 -0.613281 4.59375 -1.753906 C 4.59375 -2.890625 3.929688 -3.550781 2.394531 -3.550781 C 0.855469 -3.550781 0.195312 -2.894531 0.195312 -1.753906 C 0.195312 -0.609375 0.855469 0.0507812 2.394531 0.0507812 Z M 2.394531 -0.613281 C 1.410156 -0.613281 0.984375 -0.945312 0.984375 -1.753906 C 0.984375 -2.558594 1.40625 -2.886719 2.394531 -2.886719 C 3.386719 -2.886719 3.804688 -2.554688 3.804688 -1.753906 C 3.804688 -0.949219 3.378906 -0.613281 2.394531 -0.613281 Z M 2.394531 -0.613281 "/></g></g></g><g fill="#02084b" fill-opacity="1"><g transform="translate(11.729635, 30.97599)"><g><path d="M 0.246094 0 L 1.035156 0 L 1.035156 -2.691406 L 3.664062 0 L 4.753906 0 L 4.753906 -3.5 L 3.964844 -3.5 L 3.964844 -0.808594 L 1.339844 -3.5 L 0.246094 -3.5 Z M 0.246094 0 "/></g></g></g><g fill="#02084b" fill-opacity="1"><g transform="translate(16.729673, 30.97599)"><g><path d="M 0.246094 0 L 1.035156 0 L 1.035156 -2.691406 L 3.664062 0 L 4.753906 0 L 4.753906 -3.5 L 3.964844 -3.5 L 3.964844 -0.808594 L 1.339844 -3.5 L 0.246094 -3.5 Z M 0.246094 0 "/></g></g></g><g fill="#02084b" fill-opacity="1"><g transform="translate(21.72971, 30.97599)"><g><path d="M 0.246094 0 L 3.945312 0 L 3.945312 -0.636719 L 1.035156 -0.636719 L 1.035156 -1.449219 L 3.945312 -1.449219 L 3.945312 -2.050781 L 1.035156 -2.050781 L 1.035156 -2.863281 L 3.945312 -2.863281 L 3.945312 -3.5 L 0.246094 -3.5 Z M 0.246094 0 "/></g></g></g><g fill="#02084b" fill-opacity="1"><g transform="translate(25.869737, 30.97599)"><g><path d="M 2.394531 0.0507812 C 3.789062 0.0507812 4.480469 -0.5 4.578125 -1.480469 L 3.78125 -1.480469 C 3.691406 -0.855469 3.195312 -0.613281 2.394531 -0.613281 C 1.449219 -0.613281 0.984375 -0.945312 0.984375 -1.753906 C 0.984375 -2.558594 1.445312 -2.886719 2.394531 -2.886719 C 3.199219 -2.886719 3.691406 -2.648438 3.78125 -2.03125 L 4.574219 -2.03125 C 4.480469 -3.003906 3.789062 -3.550781 2.394531 -3.550781 C 0.855469 -3.550781 0.195312 -2.894531 0.195312 -1.753906 C 0.195312 -0.609375 0.855469 0.0507812 2.394531 0.0507812 Z M 2.394531 0.0507812 "/></g></g></g><g fill="#02084b" fill-opacity="1"><g transform="translate(30.644772, 30.97599)"><g><path d="M 1.949219 0 L 2.738281 0 L 2.738281 -2.835938 L 4.496094 -2.835938 L 4.496094 -3.5 L 0.195312 -3.5 L 0.195312 -2.835938 L 1.949219 -2.835938 Z M 1.949219 0 "/></g></g></g></svg>