<svg xmlns="http://www.w3.org/2000/svg" xmlns:xlink="http://www.w3.org/1999/xlink" width="50" zoomAndPan="magnify" viewBox="0 0 37.5 37.499999" height="50" preserveAspectRatio="xMidYMid meet" version="1.0"><defs><g/><clipPath id="id1"><path d="M 7.179688 3.75 L 30.429688 3.75 L 30.429688 27 L 7.179688 27 Z M 7.179688 3.75 " clip-rule="nonzero"/></clipPath></defs><path fill="#ffffff" d="M 29.402344 15.019531 C 29.402344 15.707031 29.335938 16.390625 29.203125 17.066406 C 29.070312 17.742188 28.871094 18.394531 28.605469 19.03125 C 28.34375 19.667969 28.019531 20.273438 27.636719 20.84375 C 27.253906 21.417969 26.820312 21.945312 26.332031 22.433594 C 25.847656 22.917969 25.316406 23.355469 24.746094 23.734375 C 24.171875 24.117188 23.570312 24.441406 22.933594 24.703125 C 22.296875 24.96875 21.640625 25.167969 20.96875 25.300781 C 20.292969 25.433594 19.609375 25.503906 18.921875 25.503906 C 18.234375 25.503906 17.550781 25.433594 16.875 25.300781 C 16.203125 25.167969 15.546875 24.96875 14.910156 24.703125 C 14.273438 24.441406 13.671875 24.117188 13.097656 23.734375 C 12.527344 23.355469 11.996094 22.917969 11.511719 22.433594 C 11.023438 21.945312 10.589844 21.417969 10.207031 20.84375 C 9.824219 20.273438 9.5 19.667969 9.238281 19.03125 C 8.972656 18.394531 8.773438 17.742188 8.640625 17.066406 C 8.507812 16.390625 8.441406 15.707031 8.441406 15.019531 C 8.441406 14.332031 8.507812 13.652344 8.640625 12.976562 C 8.773438 12.300781 8.972656 11.644531 9.238281 11.007812 C 9.5 10.375 9.824219 9.769531 10.207031 9.195312 C 10.589844 8.625 11.023438 8.09375 11.511719 7.609375 C 11.996094 7.121094 12.527344 6.6875 13.097656 6.304688 C 13.671875 5.921875 14.273438 5.597656 14.910156 5.335938 C 15.546875 5.074219 16.203125 4.875 16.875 4.738281 C 17.550781 4.605469 18.234375 4.539062 18.921875 4.539062 C 19.609375 4.539062 20.292969 4.605469 20.96875 4.738281 C 21.640625 4.875 22.296875 5.074219 22.933594 5.335938 C 23.570312 5.597656 24.171875 5.921875 24.746094 6.304688 C 25.316406 6.6875 25.847656 7.121094 26.332031 7.609375 C 26.820312 8.09375 27.253906 8.625 27.636719 9.195312 C 28.019531 9.769531 28.34375 10.375 28.605469 11.007812 C 28.871094 11.644531 29.070312 12.300781 29.203125 12.976562 C 29.335938 13.652344 29.402344 14.332031 29.402344 15.019531 Z M 29.402344 15.019531 " fill-opacity="1" fill-rule="nonzero"/><g clip-path="url(#id1)"><path fill="#02084b" d="M 18.804688 3.75 C 18.042969 3.75 17.285156 3.824219 16.535156 3.972656 C 15.789062 4.121094 15.0625 4.34375 14.355469 4.636719 C 13.648438 4.925781 12.980469 5.285156 12.34375 5.710938 C 11.710938 6.132812 11.121094 6.617188 10.582031 7.15625 C 10.042969 7.695312 9.5625 8.28125 9.136719 8.917969 C 8.710938 9.550781 8.355469 10.222656 8.0625 10.929688 C 7.769531 11.632812 7.550781 12.359375 7.402344 13.109375 C 7.25 13.859375 7.175781 14.613281 7.175781 15.378906 C 7.175781 16.140625 7.25 16.898438 7.402344 17.648438 C 7.550781 18.394531 7.769531 19.121094 8.0625 19.828125 C 8.355469 20.535156 8.710938 21.203125 9.136719 21.839844 C 9.5625 22.472656 10.042969 23.0625 10.582031 23.601562 C 11.121094 24.140625 11.710938 24.621094 12.34375 25.046875 C 12.980469 25.472656 13.648438 25.828125 14.355469 26.121094 C 15.0625 26.414062 15.789062 26.632812 16.535156 26.78125 C 17.285156 26.933594 18.042969 27.007812 18.804688 27.007812 C 19.570312 27.007812 20.324219 26.933594 21.074219 26.78125 C 21.824219 26.632812 22.550781 26.414062 23.253906 26.121094 C 23.960938 25.828125 24.628906 25.472656 25.265625 25.046875 C 25.898438 24.621094 26.488281 24.140625 27.027344 23.601562 C 27.566406 23.0625 28.050781 22.472656 28.472656 21.839844 C 28.898438 21.203125 29.257812 20.535156 29.546875 19.828125 C 29.839844 19.121094 30.0625 18.394531 30.210938 17.648438 C 30.359375 16.898438 30.433594 16.140625 30.433594 15.378906 C 30.433594 14.613281 30.359375 13.859375 30.210938 13.109375 C 30.0625 12.359375 29.839844 11.632812 29.550781 10.929688 C 29.257812 10.222656 28.898438 9.554688 28.476562 8.917969 C 28.050781 8.285156 27.570312 7.695312 27.027344 7.15625 C 26.488281 6.617188 25.902344 6.132812 25.265625 5.710938 C 24.632812 5.285156 23.960938 4.925781 23.257812 4.636719 C 22.550781 4.34375 21.824219 4.121094 21.074219 3.972656 C 20.324219 3.824219 19.570312 3.75 18.804688 3.75 Z M 18.738281 9.535156 L 19.574219 6.824219 C 19.617188 6.671875 19.714844 6.621094 19.863281 6.667969 L 20.207031 6.773438 C 20.355469 6.816406 20.410156 6.910156 20.367188 7.058594 L 19.527344 9.769531 C 19.484375 9.921875 19.390625 9.972656 19.242188 9.929688 L 18.894531 9.820312 C 18.746094 9.777344 18.691406 9.683594 18.738281 9.535156 Z M 11.347656 11.269531 L 11.453125 10.921875 C 11.496094 10.773438 11.589844 10.722656 11.742188 10.765625 L 14.453125 11.605469 C 14.515625 11.621094 14.5625 11.660156 14.59375 11.714844 C 14.625 11.769531 14.628906 11.828125 14.609375 11.890625 L 14.503906 12.238281 C 14.488281 12.300781 14.449219 12.347656 14.394531 12.378906 C 14.335938 12.410156 14.277344 12.414062 14.214844 12.394531 L 11.496094 11.558594 C 11.347656 11.511719 11.300781 11.417969 11.347656 11.269531 Z M 14.703125 15.253906 L 12.191406 16.578125 C 12.054688 16.652344 11.949219 16.617188 11.878906 16.480469 L 11.707031 16.167969 C 11.675781 16.109375 11.671875 16.050781 11.691406 15.988281 C 11.710938 15.925781 11.746094 15.878906 11.804688 15.851562 L 14.3125 14.523438 C 14.371094 14.496094 14.429688 14.488281 14.492188 14.507812 C 14.554688 14.527344 14.601562 14.5625 14.628906 14.621094 L 14.800781 14.9375 C 14.875 15.074219 14.839844 15.179688 14.703125 15.253906 Z M 16.511719 9.957031 L 16.195312 10.125 C 16.140625 10.15625 16.082031 10.164062 16.019531 10.144531 C 15.957031 10.125 15.910156 10.085938 15.882812 10.03125 L 14.554688 7.519531 C 14.480469 7.382812 14.511719 7.277344 14.652344 7.203125 L 14.96875 7.035156 C 15.023438 7.003906 15.082031 6.996094 15.144531 7.015625 C 15.207031 7.035156 15.253906 7.074219 15.28125 7.132812 L 16.605469 9.640625 C 16.636719 9.695312 16.644531 9.757812 16.625 9.816406 C 16.609375 9.878906 16.570312 9.925781 16.511719 9.957031 Z M 20.734375 17.476562 L 22.71875 21.828125 C 22.769531 21.945312 22.738281 22.027344 22.621094 22.082031 L 21.246094 22.710938 C 21.132812 22.761719 21.046875 22.730469 20.996094 22.617188 L 19.011719 18.261719 C 18.984375 18.207031 18.945312 18.171875 18.886719 18.15625 C 18.828125 18.140625 18.777344 18.152344 18.726562 18.1875 L 17.261719 19.246094 C 17.199219 19.289062 17.132812 19.292969 17.0625 19.257812 C 16.996094 19.222656 16.960938 19.164062 16.960938 19.085938 L 17.023438 12.035156 C 17.023438 11.953125 17.0625 11.894531 17.136719 11.863281 C 17.210938 11.828125 17.277344 11.839844 17.339844 11.894531 L 22.699219 16.464844 C 22.757812 16.515625 22.777344 16.578125 22.757812 16.652344 C 22.742188 16.730469 22.695312 16.777344 22.617188 16.792969 L 20.863281 17.214844 C 20.804688 17.226562 20.761719 17.261719 20.734375 17.3125 C 20.707031 17.367188 20.707031 17.421875 20.734375 17.476562 Z M 23.996094 10.609375 L 21.488281 11.9375 C 21.429688 11.964844 21.371094 11.972656 21.308594 11.953125 C 21.25 11.933594 21.203125 11.898438 21.171875 11.839844 L 21.003906 11.523438 C 20.972656 11.46875 20.964844 11.40625 20.984375 11.347656 C 21.003906 11.285156 21.042969 11.238281 21.097656 11.207031 L 23.609375 9.882812 C 23.667969 9.851562 23.726562 9.84375 23.789062 9.863281 C 23.851562 9.882812 23.894531 9.921875 23.925781 9.980469 L 24.09375 10.292969 C 24.125 10.351562 24.132812 10.410156 24.113281 10.472656 C 24.09375 10.535156 24.054688 10.582031 23.996094 10.609375 Z M 23.996094 10.609375 " fill-opacity="1" fill-rule="nonzero"/></g><g fill="#02084b" fill-opacity="1"><g transform="translate(4.561704, 35.742655)"><g><path d="M 4.222656 0.0898438 C 6.804688 0.0898438 8 -0.972656 8 -3.160156 L 8 -6.300781 L 3.328125 -6.300781 L 3.328125 -5.101562 L 6.578125 -5.101562 L 6.578125 -3.160156 C 6.578125 -2.230469 6.335938 -1.105469 4.222656 -1.105469 C 2.105469 -1.105469 1.863281 -2.222656 1.863281 -3.160156 L 0.441406 -3.160156 C 0.441406 -0.964844 1.628906 0.0898438 4.222656 0.0898438 Z M 4.222656 0.0898438 "/></g></g></g><g fill="#02084b" fill-opacity="1"><g transform="translate(13.003758, 35.742655)"><g><path d="M 4.3125 0.0898438 C 7.074219 0.0898438 8.269531 -1.105469 8.269531 -3.160156 C 8.269531 -5.203125 7.074219 -6.390625 4.3125 -6.390625 C 1.539062 -6.390625 0.351562 -5.210938 0.351562 -3.160156 C 0.351562 -1.097656 1.539062 0.0898438 4.3125 0.0898438 Z M 4.3125 -1.105469 C 2.539062 -1.105469 1.773438 -1.699219 1.773438 -3.160156 C 1.773438 -4.609375 2.527344 -5.191406 4.3125 -5.191406 C 6.09375 -5.191406 6.847656 -4.597656 6.847656 -3.160156 C 6.847656 -1.710938 6.085938 -1.105469 4.3125 -1.105469 Z M 4.3125 -1.105469 "/></g></g></g><g fill="#02084b" fill-opacity="1"><g transform="translate(21.625815, 35.742655)"><g><path d="M 0.441406 0 L 1.863281 0 L 1.863281 -6.300781 L 0.441406 -6.300781 Z M 0.441406 0 "/></g></g></g><g fill="#02084b" fill-opacity="1"><g transform="translate(23.929831, 35.742655)"><g><path d="M 0.441406 0 L 1.863281 0 L 1.863281 -4.84375 L 6.597656 0 L 8.558594 0 L 8.558594 -6.300781 L 7.136719 -6.300781 L 7.136719 -1.457031 L 2.410156 -6.300781 L 0.441406 -6.300781 Z M 0.441406 0 "/></g></g></g></svg>