<svg xmlns="http://www.w3.org/2000/svg" xmlns:xlink="http://www.w3.org/1999/xlink" width="736" zoomAndPan="magnify" viewBox="0 0 552 767.999994" height="1024" preserveAspectRatio="xMidYMid meet" version="1.0"><defs><filter x="0%" y="0%" width="100%" height="100%" id="id1"><feColorMatrix values="0 0 0 0 1 0 0 0 0 1 0 0 0 0 1 0 0 0 1 0" color-interpolation-filters="sRGB"/></filter><g/><clipPath id="id2"><path d="M 390.386719 606.386719 L 496.886719 606.386719 L 496.886719 712.886719 L 390.386719 712.886719 Z M 390.386719 606.386719 " clip-rule="nonzero"/></clipPath><mask id="id3"><g filter="url(#id1)"><rect x="-55.2" width="662.4" fill="#000000" y="-76.799999" height="921.599993" fill-opacity="0.2667"/></g></mask><clipPath id="id4"><path d="M 0 78 L 141 78 L 141 163 L 0 163 Z M 0 78 " clip-rule="nonzero"/></clipPath><clipPath id="id5"><path d="M 0 104 L 112 104 L 112 170 L 0 170 Z M 0 104 " clip-rule="nonzero"/></clipPath><clipPath id="id6"><path d="M 0 131 L 84 131 L 84 184 L 0 184 Z M 0 131 " clip-rule="nonzero"/></clipPath><clipPath id="id7"><path d="M 0 156 L 61 156 L 61 201 L 0 201 Z M 0 156 " clip-rule="nonzero"/></clipPath><clipPath id="id8"><path d="M 98 232 L 190 232 L 190 276.683594 L 98 276.683594 Z M 98 232 " clip-rule="nonzero"/></clipPath><clipPath id="id9"><path d="M 412 78 L 552 78 L 552 160 L 412 160 Z M 412 78 " clip-rule="nonzero"/></clipPath><clipPath id="id10"><path d="M 442 104 L 552 104 L 552 168 L 442 168 Z M 442 104 " clip-rule="nonzero"/></clipPath><clipPath id="id11"><path d="M 469 131 L 552 131 L 552 183 L 469 183 Z M 469 131 " clip-rule="nonzero"/></clipPath><clipPath id="id12"><path d="M 491 156 L 552 156 L 552 201 L 491 201 Z M 491 156 " clip-rule="nonzero"/></clipPath><clipPath id="id13"><path d="M 362 232 L 454 232 L 454 276.683594 L 362 276.683594 Z M 362 232 " clip-rule="nonzero"/></clipPath><clipPath id="id14"><rect x="0" width="552" y="0" height="277"/></clipPath><clipPath id="id15"><path d="M 94.652344 210.683594 L 457.652344 210.683594 L 457.652344 557.183594 L 94.652344 557.183594 Z M 94.652344 210.683594 " clip-rule="nonzero"/></clipPath><clipPath id="id16"><path d="M 103.652344 218.933594 L 466.652344 218.933594 L 466.652344 565.433594 L 103.652344 565.433594 Z M 103.652344 218.933594 " clip-rule="nonzero"/></clipPath></defs><rect x="-55.2" width="662.4" fill="#2171cc" y="-76.799999" height="921.599993" fill-opacity="1"/><rect x="-55.2" width="662.4" fill="#ffffff" y="-76.799999" height="921.599993" fill-opacity="1"/><rect x="-55.2" width="662.4" fill="#2171cc" y="-76.799999" height="921.599993" fill-opacity="1"/><g clip-path="url(#id2)"><path fill="#fffaef" d="M 443.636719 606.386719 C 414.230469 606.386719 390.386719 630.230469 390.386719 659.636719 C 390.386719 689.042969 414.230469 712.886719 443.636719 712.886719 C 473.050781 712.886719 496.886719 689.042969 496.886719 659.636719 C 496.886719 630.230469 473.050781 606.386719 443.636719 606.386719 Z M 442.011719 694.757812 C 428.609375 694.714844 419.566406 686.78125 419.601562 677.039062 C 419.648438 663.449219 428.625 658.464844 437.804688 654.636719 C 431.449219 650.859375 425.390625 646.882812 425.414062 637.824219 C 425.457031 625.964844 433.769531 619.722656 446.113281 619.765625 C 454.964844 619.785156 463.042969 626.46875 463.027344 632.15625 C 463.027344 632.632812 462.835938 633.023438 462.253906 633.019531 C 457.34375 633 454.167969 629.039062 445.296875 629.011719 C 440.289062 628.992188 436.710938 631.976562 436.695312 636.414062 C 436.675781 642.679688 442.542969 646.074219 449.1875 649.660156 C 453.636719 647.261719 456.730469 644.285156 456.746094 639.074219 C 456.746094 637.535156 455.496094 636.089844 455.496094 635.023438 C 455.503906 634.347656 455.699219 633.867188 456.175781 633.867188 C 459.070312 633.878906 462.914062 637.359375 462.90625 642.855469 C 462.882812 648.644531 460.660156 652.105469 457.46875 654.410156 C 463.339844 658.28125 468.144531 663.316406 468.113281 671.703125 C 468.074219 683.46875 458.6875 694.8125 442.011719 694.757812 Z M 442.011719 694.757812 " fill-opacity="1" fill-rule="nonzero"/></g><path fill="#fffaef" d="M 446.066406 659.863281 C 439.980469 662.542969 434.667969 665.996094 434.636719 675.449219 C 434.621094 679.40625 437.796875 682.398438 442.523438 682.410156 C 448.695312 682.441406 452.660156 678.785156 452.671875 672.902344 C 452.699219 666.734375 449.910156 662.871094 446.066406 659.863281 Z M 446.066406 659.863281 " fill-opacity="1" fill-rule="nonzero"/><g mask="url(#id3)"><g transform="matrix(1, 0, 0, 1, 0, 210)"><g clip-path="url(#id14)"><g clip-path="url(#id4)"><path fill="#deb642" d="M 140.074219 161.242188 C 133.972656 161.265625 128.128906 161.773438 122.476562 162.550781 C 121.460938 160.152344 120.34375 157.785156 119.117188 155.453125 C 100.390625 119.121094 60.292969 93.945312 13.570312 93.863281 C -31.535156 93.945312 -70.628906 117.425781 -90.105469 151.777344 L -104.582031 143.757812 C -82.09375 104.808594 -37.667969 78.273438 13.570312 78.273438 C 14.964844 78.273438 16.34375 78.292969 17.71875 78.347656 C 23.730469 78.503906 29.664062 79.03125 35.449219 79.914062 C 39.3125 80.503906 43.132812 81.230469 46.894531 82.132812 C 52.488281 83.453125 57.941406 85.089844 63.242188 87.046875 C 67.167969 88.488281 70.984375 90.101562 74.699219 91.84375 C 79.769531 94.25 84.625 96.949219 89.292969 99.910156 C 92.175781 101.722656 94.988281 103.671875 97.714844 105.722656 C 102.496094 109.253906 107.007812 113.113281 111.207031 117.242188 C 121.972656 127.835938 130.738281 140.171875 136.929688 153.742188 C 138.058594 156.195312 139.101562 158.6875 140.074219 161.242188 " fill-opacity="1" fill-rule="nonzero"/></g><g clip-path="url(#id5)"><path fill="#deb642" d="M 111.125 164.613281 C 105.519531 165.914062 100.132812 167.511719 94.988281 169.480469 C 81.457031 140.441406 50.160156 120.097656 13.589844 120.03125 C -21.199219 120.097656 -51.1875 138.550781 -65.625 165.386719 L -80.21875 157.28125 C -62.765625 125.917969 -27.371094 104.4375 13.589844 104.4375 C 57.667969 104.4375 95.34375 129.292969 111.125 164.613281 " fill-opacity="1" fill-rule="nonzero"/></g><g clip-path="url(#id6)"><path fill="#deb642" d="M 83.664062 174.6875 C 78.535156 177.371094 73.605469 180.332031 68.984375 183.667969 C 67.941406 180.957031 66.707031 178.351562 65.242188 175.875 C 55.339844 158.871094 36.058594 147.265625 13.621094 147.234375 C -10.457031 147.265625 -30.953125 160.589844 -40.074219 179.59375 L -54.832031 171.378906 C -42.65625 147.875 -16.628906 131.628906 13.621094 131.628906 C 42.191406 131.628906 67.035156 146.179688 79.949219 167.644531 C 81.339844 169.914062 82.570312 172.261719 83.664062 174.6875 " fill-opacity="1" fill-rule="nonzero"/></g><g clip-path="url(#id7)"><path fill="#deb642" d="M -16.546875 192.636719 C -12.515625 180.820312 -0.554688 172.308594 13.621094 172.261719 C 27.902344 172.308594 39.953125 181.007812 43.871094 193.015625 C 44.695312 195.542969 45.1875 198.199219 45.230469 200.949219 L 49.632812 200.949219 C 53.042969 197.214844 56.695312 193.699219 60.546875 190.382812 C 59.683594 187.34375 58.492188 184.421875 57.007812 181.632812 C 49.132812 166.878906 32.726562 156.695312 13.621094 156.695312 C -6.726562 156.695312 -23.957031 168.21875 -31.183594 184.523438 L -16.546875 192.636719 " fill-opacity="1" fill-rule="nonzero"/></g><path fill="#deb642" d="M 150.058594 159.980469 C 156.355469 159.058594 162.453125 158.886719 168.367188 159.480469 C 186.105469 120.988281 227.484375 94.042969 275.777344 93.886719 L 275.777344 78.289062 C 217.789062 78.375 168.539062 112.4375 150.058594 159.980469 " fill-opacity="1" fill-rule="nonzero"/><path fill="#deb642" d="M 179.90625 161.578125 C 185.332031 162.96875 190.640625 164.859375 195.808594 167.246094 C 209.835938 139.472656 240.292969 120.199219 275.777344 120.03125 L 275.777344 104.453125 C 233.074219 104.535156 196.417969 127.957031 179.90625 161.578125 " fill-opacity="1" fill-rule="nonzero"/><path fill="#deb642" d="M 206.714844 173.027344 C 211.554688 175.898438 216.328125 179.125 221.007812 182.605469 C 229.3125 162.078125 250.539062 147.382812 275.777344 147.234375 L 275.777344 131.652344 C 244.960938 131.734375 218.527344 148.699219 206.714844 173.027344 " fill-opacity="1" fill-rule="nonzero"/><path fill="#deb642" d="M 229.453125 189.1875 C 234.078125 192.949219 238.644531 196.882812 243.171875 200.941406 L 244.375 200.941406 C 244.6875 185.140625 258.558594 172.457031 275.777344 172.292969 L 275.777344 156.714844 C 253.675781 156.8125 235.269531 170.539062 229.453125 189.1875 " fill-opacity="1" fill-rule="nonzero"/><path fill="#deb642" d="M 270.105469 241.128906 C 264.253906 241.261719 258.441406 241.6875 252.679688 242.445312 C 237.066406 199.945312 193.429688 169.332031 141.933594 169.257812 C 98.167969 169.3125 60.105469 191.394531 40.070312 224.09375 L 25.523438 216.011719 C 30.675781 207.671875 36.835938 199.960938 43.871094 193.015625 C 47.960938 188.941406 52.359375 185.15625 57.007812 181.632812 C 59.652344 179.617188 62.410156 177.699219 65.242188 175.875 C 69.917969 172.835938 74.847656 170.113281 79.949219 167.644531 C 83.664062 165.847656 87.507812 164.203125 91.417969 162.753906 C 96.703125 160.769531 102.132812 159.074219 107.722656 157.726562 C 111.460938 156.820312 115.253906 156.054688 119.117188 155.453125 C 124.925781 154.523438 130.894531 153.941406 136.929688 153.742188 C 138.59375 153.691406 140.269531 153.660156 141.933594 153.660156 C 145.53125 153.660156 149.054688 153.785156 152.5625 154.0625 C 158.460938 154.460938 164.234375 155.25 169.898438 156.335938 C 173.742188 157.09375 177.503906 158.007812 181.222656 159.074219 C 186.707031 160.589844 192.039062 162.457031 197.191406 164.613281 C 200.996094 166.203125 204.75 167.972656 208.363281 169.890625 C 213.417969 172.507812 218.214844 175.445312 222.824219 178.65625 C 225.679688 180.636719 228.40625 182.726562 231.054688 184.894531 C 235.929688 188.890625 240.449219 193.1875 244.597656 197.789062 C 256.078125 210.339844 264.804688 225.03125 270.105469 241.128906 " fill-opacity="1" fill-rule="nonzero"/><path fill="#deb642" d="M 241.320312 244.363281 C 235.78125 245.53125 230.324219 246.988281 225.007812 248.804688 C 212.585938 217.648438 180.144531 195.460938 141.933594 195.386719 C 108.53125 195.460938 79.488281 212.472656 64.410156 237.621094 L 49.863281 229.53125 C 67.875 199.871094 102.332031 179.789062 141.933594 179.789062 C 187.800781 179.789062 226.816406 206.769531 241.320312 244.363281 " fill-opacity="1" fill-rule="nonzero"/><path fill="#deb642" d="M 213.417969 253.382812 C 208.214844 255.734375 203.191406 258.492188 198.410156 261.578125 C 191.230469 239.0625 168.742188 222.660156 141.964844 222.601562 C 119.265625 222.628906 99.609375 234.40625 89.785156 251.6875 L 75.21875 243.605469 C 88.066406 221.820312 113.125 207.015625 141.964844 207.015625 C 174.941406 207.015625 202.953125 226.363281 213.417969 253.382812 " fill-opacity="1" fill-rule="nonzero"/><g clip-path="url(#id8)"><path fill="#deb642" d="M 189.542969 267.972656 C 186.300781 270.550781 183.191406 273.324219 180.242188 276.335938 L 173.566406 276.335938 C 173.238281 260.433594 159.210938 247.703125 141.964844 247.652344 C 129.148438 247.703125 118.1875 254.65625 113.179688 264.683594 L 98.652344 256.632812 C 106.636719 242.058594 122.984375 232.058594 141.964844 232.058594 C 165.5 232.058594 185.058594 247.472656 189.542969 267.972656 " fill-opacity="1" fill-rule="nonzero"/></g><g clip-path="url(#id9)"><path fill="#deb642" d="M 656.667969 144.007812 L 642.089844 152.089844 C 622.636719 117.574219 583.59375 93.945312 538.332031 93.863281 C 491.675781 93.945312 451.445312 119.101562 432.695312 155.4375 C 431.988281 156.773438 431.328125 158.113281 430.695312 159.472656 C 424.816406 158.886719 418.71875 159.050781 412.394531 159.980469 C 413.238281 157.851562 414.101562 155.785156 415.0625 153.742188 C 421.238281 140.171875 430.019531 127.867188 440.746094 117.285156 C 444.953125 113.113281 449.472656 109.253906 454.246094 105.722656 C 456.960938 103.671875 459.753906 101.753906 462.609375 99.953125 C 467.285156 96.949219 472.183594 94.25 477.292969 91.84375 C 481 90.078125 484.824219 88.460938 488.742188 87.046875 C 493.988281 85.070312 499.460938 83.433594 505.050781 82.132812 C 508.804688 81.230469 512.640625 80.503906 516.535156 79.914062 C 522.34375 79.03125 528.289062 78.503906 534.320312 78.347656 C 535.65625 78.292969 536.996094 78.273438 538.332031 78.273438 C 589.734375 78.273438 634.261719 104.9375 656.667969 144.007812 " fill-opacity="1" fill-rule="nonzero"/></g><g clip-path="url(#id10)"><path fill="#deb642" d="M 632.375 157.496094 L 632.335938 157.496094 C 614.90625 126.023438 579.398438 104.4375 538.363281 104.4375 C 497.207031 104.4375 461.628906 126.105469 444.292969 157.726562 C 443.578125 158.992188 442.902344 160.285156 442.269531 161.570312 C 447.703125 162.960938 452.984375 164.859375 458.171875 167.238281 C 458.921875 165.710938 459.753906 164.226562 460.640625 162.753906 C 475.574219 137.363281 504.730469 120.097656 538.363281 120.03125 C 573.257812 120.097656 603.382812 138.648438 617.78125 165.59375 L 632.375 157.496094 " fill-opacity="1" fill-rule="nonzero"/></g><g clip-path="url(#id11)"><path fill="#deb642" d="M 592.132812 179.847656 C 583.035156 160.6875 562.546875 147.265625 538.398438 147.234375 C 515.925781 147.265625 496.597656 158.851562 486.695312 175.832031 C 485.425781 178.003906 484.289062 180.257812 483.351562 182.605469 C 478.683594 179.140625 473.910156 175.898438 469.085938 173.050781 C 469.96875 171.207031 470.949219 169.402344 472.015625 167.644531 C 484.949219 146.15625 509.785156 131.628906 538.398438 131.628906 C 568.65625 131.628906 594.796875 147.992188 606.964844 171.609375 L 592.132812 179.847656 " fill-opacity="1" fill-rule="nonzero"/></g><g clip-path="url(#id12)"><path fill="#deb642" d="M 583.292969 184.738281 L 568.613281 192.910156 C 564.644531 180.957031 552.644531 172.308594 538.398438 172.261719 C 524.066406 172.308594 512.039062 181.007812 508.089844 192.984375 C 507.238281 195.511719 506.746094 198.199219 506.703125 200.949219 L 505.535156 200.949219 C 501 196.882812 496.441406 192.964844 491.824219 189.1875 C 492.628906 186.5625 493.691406 184.039062 494.976562 181.632812 C 502.886719 166.878906 519.265625 156.695312 538.398438 156.695312 C 558.785156 156.695312 576.113281 168.316406 583.292969 184.738281 " fill-opacity="1" fill-rule="nonzero"/></g><path fill="#deb642" d="M 276.042969 78.289062 L 275.835938 78.289062 L 275.835938 93.886719 L 276.042969 93.886719 C 325.71875 93.945312 367.960938 122.417969 384.945312 162.550781 C 390.597656 161.773438 396.445312 161.265625 402.519531 161.230469 C 384.382812 112.972656 334.691406 78.289062 276.042969 78.289062 " fill-opacity="1" fill-rule="nonzero"/><path fill="#deb642" d="M 276.066406 104.4375 L 275.835938 104.453125 L 275.835938 120.03125 L 276.066406 120.03125 C 312.640625 120.097656 343.945312 140.441406 357.449219 169.480469 C 362.613281 167.511719 367.988281 165.914062 373.59375 164.613281 C 357.820312 129.308594 320.136719 104.4375 276.066406 104.4375 " fill-opacity="1" fill-rule="nonzero"/><path fill="#deb642" d="M 276.097656 131.621094 L 275.835938 131.652344 L 275.835938 147.234375 L 276.097656 147.234375 C 301.824219 147.257812 323.390625 162.5 331.449219 183.675781 C 336.089844 180.339844 340.996094 177.363281 346.15625 174.703125 C 334.730469 149.429688 307.691406 131.621094 276.097656 131.621094 " fill-opacity="1" fill-rule="nonzero"/><path fill="#deb642" d="M 276.082031 156.707031 L 275.835938 156.714844 L 275.835938 172.292969 L 276.082031 172.269531 C 293.371094 172.308594 307.386719 185.050781 307.707031 200.941406 L 312.078125 200.941406 C 315.511719 197.203125 319.167969 193.699219 323.027344 190.382812 C 317.644531 171.035156 298.753906 156.707031 276.082031 156.707031 " fill-opacity="1" fill-rule="nonzero"/><path fill="#deb642" d="M 526.617188 216.234375 L 512.039062 224.324219 L 512.007812 224.324219 C 492.019531 191.46875 453.925781 169.332031 410.027344 169.257812 C 358.242188 169.332031 314.492188 200.210938 299.050781 243.019531 C 293.34375 242.171875 287.589844 241.605469 281.8125 241.300781 C 287.097656 225.136719 295.894531 210.339844 307.4375 197.738281 C 311.585938 193.132812 316.160156 188.820312 321.035156 184.820312 C 323.667969 182.671875 326.402344 180.605469 329.199219 178.628906 C 333.800781 175.421875 338.648438 172.464844 343.703125 169.808594 C 347.335938 167.882812 351.082031 166.136719 354.914062 164.558594 L 354.949219 164.558594 C 360.09375 162.410156 365.402344 160.539062 370.867188 159.011719 C 374.523438 157.980469 378.234375 157.09375 382.023438 156.335938 C 387.734375 155.230469 393.585938 154.460938 399.515625 154.039062 C 402.972656 153.785156 406.488281 153.660156 410.027344 153.660156 C 411.722656 153.660156 413.394531 153.691406 415.0625 153.742188 C 421.046875 153.941406 426.925781 154.523438 432.695312 155.4375 C 436.613281 156.039062 440.5 156.796875 444.292969 157.726562 C 449.90625 159.085938 455.363281 160.769531 460.640625 162.753906 C 464.519531 164.226562 468.328125 165.847656 472.015625 167.644531 C 477.113281 170.0625 482.011719 172.796875 486.695312 175.832031 C 489.542969 177.675781 492.300781 179.59375 494.976562 181.632812 C 499.632812 185.125 504.023438 188.917969 508.089844 192.984375 C 515.214844 200.003906 521.4375 207.820312 526.617188 216.234375 " fill-opacity="1" fill-rule="nonzero"/><path fill="#deb642" d="M 502.226562 229.785156 L 487.675781 237.84375 C 472.660156 212.578125 443.578125 195.460938 410.027344 195.386719 C 371.542969 195.460938 338.847656 218.035156 326.640625 249.597656 C 321.308594 247.882812 315.882812 246.355469 310.34375 245.152344 C 324.597656 207.113281 363.839844 179.789062 410.027344 179.789062 C 449.757812 179.789062 484.289062 199.980469 502.226562 229.785156 " fill-opacity="1" fill-rule="nonzero"/><path fill="#deb642" d="M 476.90625 243.84375 L 462.28125 251.976562 C 452.527344 234.5625 432.84375 222.660156 410.058594 222.601562 C 383.25 222.660156 360.734375 239.0625 353.582031 261.546875 C 352.972656 261.117188 352.371094 260.664062 351.761719 260.238281 C 347.441406 257.917969 342.945312 255.84375 338.347656 253.949219 C 348.628906 226.601562 376.828125 207.015625 410.058594 207.015625 C 439.007812 207.015625 464.125 221.925781 476.90625 243.84375 " fill-opacity="1" fill-rule="nonzero"/><g clip-path="url(#id13)"><path fill="#deb642" d="M 453.496094 256.855469 L 438.941406 264.9375 C 434.003906 254.78125 422.941406 247.671875 410.058594 247.652344 C 392.722656 247.703125 378.722656 260.433594 378.390625 276.335938 L 373.007812 276.335938 C 369.75 273.273438 366.160156 270.601562 362.421875 267.898438 C 366.917969 247.441406 386.507812 232.058594 410.058594 232.058594 C 429.105469 232.058594 445.546875 242.171875 453.496094 256.855469 " fill-opacity="1" fill-rule="nonzero"/></g><path fill="#deb642" d="M 141.917969 1.035156 C 82.988281 1.035156 32.996094 36.070312 15.109375 84.734375 C 21.09375 84.480469 27.054688 84.621094 33.015625 85.164062 C 50.035156 45.082031 92.316406 16.699219 141.917969 16.625 C 193.445312 16.699219 237.058594 47.304688 252.695312 89.8125 C 258.441406 89.078125 264.253906 88.644531 270.105469 88.519531 C 253.46875 37.890625 202.417969 1.035156 141.917969 1.035156 " fill-opacity="1" fill-rule="nonzero"/><path fill="#deb642" d="M 141.933594 27.183594 C 98.140625 27.183594 60.597656 51.722656 44.652344 86.683594 C 50.269531 87.632812 55.847656 88.988281 61.304688 90.691406 C 75.210938 62.457031 106.050781 42.851562 141.933594 42.777344 C 180.128906 42.851562 212.585938 65.039062 225.007812 96.175781 C 230.324219 94.378906 235.773438 92.898438 241.320312 91.753906 C 226.792969 54.113281 187.808594 27.183594 141.933594 27.183594 " fill-opacity="1" fill-rule="nonzero"/><path fill="#deb642" d="M 141.949219 54.382812 C 111.378906 54.382812 85.046875 71.015625 73.011719 94.957031 C 78.132812 97.121094 83.113281 99.648438 87.960938 102.496094 C 97.054688 83.378906 117.765625 70.011719 141.949219 69.996094 C 168.726562 70.011719 191.234375 86.457031 198.417969 108.972656 C 203.191406 105.867188 208.222656 103.128906 213.417969 100.765625 C 202.953125 73.746094 174.941406 54.382812 141.949219 54.382812 " fill-opacity="1" fill-rule="nonzero"/><path fill="#deb642" d="M 141.949219 79.449219 C 121.246094 79.449219 103.648438 91.367188 96.613281 108.117188 C 97.9375 109.054688 99.261719 109.976562 100.539062 110.972656 C 103.0625 113.5 107.046875 115.574219 111 118.082031 C 114.0625 104.914062 126.722656 95.054688 141.949219 95.046875 C 159.226562 95.082031 173.238281 107.8125 173.582031 123.726562 L 180.242188 123.726562 C 183.199219 120.691406 186.300781 117.933594 189.542969 115.34375 C 185.074219 94.875 165.5 79.449219 141.949219 79.449219 " fill-opacity="1" fill-rule="nonzero"/><path fill="#deb642" d="M 190.53125 123.726562 C 190.5 120.839844 190.144531 118.042969 189.542969 115.34375 C 186.300781 117.933594 183.199219 120.691406 180.242188 123.726562 L 190.53125 123.726562 " fill-opacity="1" fill-rule="nonzero"/><path fill="#deb642" d="M 410.027344 1.035156 C 349.476562 1.035156 298.382812 38.003906 281.8125 88.703125 C 287.574219 88.988281 293.34375 89.550781 299.050781 90.429688 C 314.492188 47.59375 358.265625 16.699219 410.027344 16.625 C 461.644531 16.699219 505.289062 47.394531 520.871094 90.019531 C 526.492188 88.839844 532.148438 87.976562 537.828125 87.375 C 520.8125 37.332031 470.042969 1.035156 410.027344 1.035156 " fill-opacity="1" fill-rule="nonzero"/><path fill="#deb642" d="M 410.027344 27.183594 C 363.824219 27.183594 324.597656 54.5 310.34375 92.527344 C 315.859375 93.746094 321.308594 95.261719 326.640625 96.996094 C 338.847656 65.433594 371.535156 42.851562 410.027344 42.777344 C 448.902344 42.851562 481.789062 65.804688 493.75 97.8125 C 498.984375 95.871094 504.335938 94.140625 509.773438 92.667969 C 495.542969 54.574219 456.285156 27.183594 410.027344 27.183594 " fill-opacity="1" fill-rule="nonzero"/><path fill="#deb642" d="M 410.042969 54.382812 C 376.820312 54.382812 348.628906 73.996094 338.335938 101.308594 C 342.945312 103.226562 347.433594 105.300781 351.761719 107.597656 C 352.371094 108.050781 352.972656 108.511719 353.582031 108.9375 C 360.75 86.429688 383.234375 70.011719 410.042969 69.996094 C 437.371094 70.011719 460.214844 87.128906 466.914062 110.332031 C 471.820312 107.515625 476.929688 104.914062 482.199219 102.542969 C 472.289062 74.597656 443.75 54.382812 410.042969 54.382812 " fill-opacity="1" fill-rule="nonzero"/><path fill="#deb642" d="M 361.441406 123.726562 L 373.023438 123.726562 C 369.757812 120.667969 366.160156 117.949219 362.421875 115.285156 C 361.820312 118.015625 361.46875 120.804688 361.441406 123.726562 " fill-opacity="1" fill-rule="nonzero"/><path fill="#deb642" d="M 410.042969 79.449219 C 386.507812 79.449219 366.933594 94.824219 362.421875 115.285156 C 366.160156 117.949219 369.757812 120.667969 373.023438 123.726562 L 378.390625 123.726562 C 378.722656 107.8125 392.714844 95.082031 410.042969 95.046875 C 427.335938 95.082031 441.363281 107.8125 441.667969 123.726562 L 447.09375 123.726562 C 450.492188 121.003906 454.046875 118.417969 457.769531 115.953125 C 453.554688 95.164062 433.832031 79.449219 410.042969 79.449219 " fill-opacity="1" fill-rule="nonzero"/><path fill="#deb642" d="M 438.941406 264.9375 L 453.496094 256.855469 L 462.28125 251.976562 L 476.90625 243.84375 L 487.675781 237.84375 L 502.226562 229.785156 L 512.007812 224.324219 L 512.039062 224.324219 L 526.617188 216.234375 " fill-opacity="1" fill-rule="nonzero"/></g></g></g><g clip-path="url(#id15)"><path fill="#fffaef" d="M 359.578125 555.84375 C 357.464844 555.308594 336.941406 547.726562 313.96875 539.003906 C 223.109375 504.492188 206.160156 499.640625 175.027344 499.253906 C 160.320312 499.066406 153.375 500.144531 135.578125 505.378906 C 110.183594 512.84375 109.535156 512.886719 101.160156 507.789062 C 96.664062 505.058594 94.707031 502.371094 94.707031 498.941406 C 94.707031 494.691406 96.136719 493.617188 105.121094 491.09375 C 110.84375 489.484375 121.09375 487.121094 127.890625 485.835938 C 134.6875 484.550781 141.140625 482.433594 142.226562 481.125 C 145.089844 477.679688 148.53125 450.875 147.09375 443.222656 C 146.421875 439.636719 143.726562 433.800781 141.109375 430.257812 C 135.164062 422.210938 135.179688 419.441406 141.28125 399.828125 C 143.988281 391.113281 146.222656 383.382812 146.238281 382.644531 C 146.253906 381.90625 141.171875 384.367188 134.945312 388.113281 C 113.324219 401.117188 96.640625 402.464844 96.734375 391.199219 C 96.769531 386.726562 99.257812 384.527344 113.894531 376.0625 C 123.308594 370.617188 136.007812 362.394531 142.109375 357.792969 C 154.660156 348.332031 160.542969 347.421875 171.859375 353.191406 C 184.835938 359.800781 191.878906 366.867188 191.878906 373.265625 C 191.878906 376.4375 191.027344 379.03125 189.992188 379.03125 C 188.953125 379.03125 180.523438 387.628906 171.253906 398.140625 L 154.398438 417.246094 L 163.035156 422.960938 C 179.304688 433.722656 181.164062 441.320312 173.039062 463.824219 C 170.3125 471.375 168.078125 478.113281 168.078125 478.796875 C 168.078125 479.480469 174.296875 480.042969 181.894531 480.042969 C 197.640625 480.042969 231.734375 484.484375 259.015625 490.089844 C 269.226562 492.191406 278.375 493.90625 279.347656 493.90625 C 280.316406 493.90625 281.113281 481.429688 281.113281 466.179688 C 281.113281 441.085938 280.78125 438.453125 277.640625 438.464844 C 275.734375 438.46875 260.339844 441.582031 243.433594 445.382812 C 207.511719 453.453125 204.238281 453.644531 193.65625 448.25 C 186.9375 444.828125 185.78125 443.347656 186.300781 438.84375 C 186.914062 433.523438 187.113281 433.460938 232.1875 424.332031 C 257.085938 419.289062 278.351562 414.273438 279.441406 413.183594 C 280.53125 412.09375 281.128906 408.644531 280.773438 405.515625 C 280.175781 400.304688 279.539062 399.886719 273.179688 400.503906 C 269.363281 400.875 264.585938 402.65625 262.5625 404.464844 C 257.472656 409.007812 243.03125 408.804688 237.84375 404.113281 C 232.945312 399.6875 225.796875 382.695312 217.707031 356.253906 C 214.375 345.363281 209.957031 334.449219 207.894531 332 C 200.257812 322.949219 207.917969 315.859375 222.742188 318.261719 C 229 319.277344 276.695312 311.445312 281.203125 308.667969 C 282.242188 308.023438 283.097656 304.066406 283.097656 299.871094 L 283.097656 292.246094 L 272.683594 295.011719 C 257.761719 298.980469 246.921875 298.589844 240.914062 293.867188 C 234.894531 289.140625 235.675781 282.511719 242.453125 280.8125 C 244.925781 280.195312 254.855469 277.753906 264.527344 275.386719 C 281.621094 271.207031 282.121094 270.921875 282.699219 264.996094 C 283.0625 261.304688 281.890625 257.195312 279.726562 254.574219 C 276.226562 250.335938 275.796875 250.304688 258.351562 252.847656 L 240.546875 255.449219 L 238.964844 264.257812 C 234.234375 290.621094 229.167969 299.808594 219.363281 299.808594 C 210.941406 299.808594 206.503906 296.878906 203.980469 289.652344 C 200.09375 278.507812 201.382812 270.167969 209.121094 256.398438 C 214.117188 247.519531 216.804688 239.890625 217.550781 232.46875 C 218.554688 222.480469 219.082031 221.527344 223.914062 220.96875 C 228 220.496094 230.398438 221.957031 234.636719 227.507812 C 240.039062 234.582031 240.214844 234.644531 251.183594 233.390625 C 257.285156 232.695312 286.515625 227.304688 316.144531 221.40625 C 345.785156 215.503906 373 210.679688 376.644531 210.683594 C 385.609375 210.695312 394.296875 216.386719 403.945312 228.570312 C 416.054688 243.871094 414.5625 254.25 400.242188 254.25 C 391.234375 254.25 358.957031 269.398438 357.378906 274.371094 C 355.726562 279.570312 351.132812 281.496094 336.558594 283.101562 C 317.328125 285.222656 314.839844 286.5625 314.839844 294.804688 C 314.839844 303.25 315.40625 303.316406 339.730469 297.65625 C 366.984375 291.316406 367.417969 291.28125 374.285156 294.828125 C 383.761719 299.722656 398.128906 314.828125 398.128906 319.898438 C 398.128906 322.289062 396.878906 325.65625 395.351562 327.375 C 393.824219 329.097656 390.152344 336.296875 387.1875 343.375 C 377.371094 366.84375 364.59375 390.5625 360.066406 393.730469 C 353.972656 397.992188 346.136719 397.648438 340.023438 392.847656 C 335.917969 389.621094 333.261719 389.097656 326.371094 390.148438 C 321.667969 390.863281 316.703125 392.332031 315.335938 393.40625 C 312.488281 395.648438 311.984375 405.980469 314.644531 407.625 C 317.589844 409.441406 348.976562 402.84375 357.042969 398.714844 C 377.964844 387.992188 417.453125 402.625 413.207031 419.527344 C 411.480469 426.398438 405.183594 428.539062 386.597656 428.5625 C 359.015625 428.597656 314.058594 432.542969 312.449219 435.070312 C 311.617188 436.382812 310.867188 447.257812 310.785156 459.242188 C 310.703125 471.222656 309.941406 485.246094 309.09375 490.402344 C 307.304688 501.246094 304.808594 499.742188 334.609375 505.773438 C 371.867188 513.308594 392.695312 515.664062 422.257812 515.675781 C 438.253906 515.683594 452.757812 516.226562 454.480469 516.890625 C 456.207031 517.550781 457.617188 520.28125 457.617188 522.960938 C 457.617188 527.074219 455.394531 528.851562 443.242188 534.4375 C 426.105469 542.316406 400.351562 550.34375 379.328125 554.363281 C 370.933594 555.96875 363.921875 557.175781 363.742188 557.050781 C 363.566406 556.921875 361.695312 556.378906 359.582031 555.84375 Z M 280.625 378.578125 C 283.316406 376.390625 284.023438 367.847656 281.617188 366.621094 C 280.796875 366.203125 274.679688 366.371094 268.027344 367 L 255.921875 368.136719 L 259.464844 376.429688 L 263.003906 384.726562 L 270.574219 382.660156 C 274.738281 381.527344 279.261719 379.691406 280.625 378.578125 Z M 330.277344 369.835938 C 332.988281 369.113281 335.988281 365.824219 337.726562 361.675781 C 341.550781 352.527344 349.042969 321.429688 347.734375 320.125 C 345.511719 317.902344 315.074219 324.046875 313.960938 326.945312 C 312.179688 331.578125 314.527344 333.476562 322.042969 333.476562 C 331.308594 333.476562 341.585938 343.09375 339.488281 349.800781 C 337.648438 355.695312 335.472656 356.933594 324.304688 358.449219 C 315.042969 359.703125 310.726562 364.097656 313.828125 369.109375 C 315.207031 371.335938 323.335938 371.695312 330.277344 369.835938 Z M 268.625 348.324219 C 280.371094 344.839844 283.996094 341.261719 282.363281 334.769531 L 281.183594 330.070312 L 264.792969 333.339844 C 255.773438 335.140625 248.554688 337.46875 248.746094 338.511719 C 251.429688 353.183594 251.734375 353.332031 268.625 348.324219 Z M 338.789062 256.039062 C 343.277344 257.382812 347.179688 258.195312 347.460938 257.847656 C 354.433594 249.308594 360.140625 239.289062 358.796875 237.945312 C 357.136719 236.289062 311.519531 243.027344 309.28125 245.261719 C 308.699219 245.84375 309.152344 246.324219 310.292969 246.324219 C 311.433594 246.324219 313.433594 248.894531 314.734375 252.035156 C 316.976562 257.4375 317.46875 257.636719 323.867188 255.671875 C 328.800781 254.160156 332.839844 254.261719 338.789062 256.039062 Z M 158.253906 294.691406 C 147.945312 290.226562 130.507812 276.101562 124.953125 267.710938 C 117.144531 255.929688 119.214844 254.246094 141.535156 254.246094 L 160.722656 254.246094 L 170.351562 263.867188 C 179.359375 272.859375 179.984375 274.144531 179.984375 283.601562 C 179.984375 291.578125 179.171875 294.152344 176.148438 295.769531 C 171.003906 298.519531 166.457031 298.246094 158.253906 294.691406 Z M 158.253906 294.691406 " fill-opacity="1" fill-rule="nonzero"/></g><g clip-path="url(#id16)"><path fill="#000000" d="M 368.578125 564.09375 C 366.464844 563.558594 345.941406 555.976562 322.96875 547.253906 C 232.109375 512.742188 215.160156 507.890625 184.027344 507.503906 C 169.320312 507.316406 162.375 508.394531 144.578125 513.628906 C 119.183594 521.09375 118.535156 521.136719 110.160156 516.039062 C 105.664062 513.308594 103.707031 510.621094 103.707031 507.191406 C 103.707031 502.941406 105.136719 501.867188 114.121094 499.34375 C 119.84375 497.734375 130.09375 495.371094 136.890625 494.085938 C 143.6875 492.800781 150.140625 490.683594 151.226562 489.375 C 154.089844 485.929688 157.53125 459.125 156.09375 451.472656 C 155.421875 447.886719 152.726562 442.050781 150.109375 438.507812 C 144.164062 430.460938 144.179688 427.691406 150.28125 408.078125 C 152.988281 399.363281 155.222656 391.632812 155.238281 390.894531 C 155.253906 390.15625 150.171875 392.617188 143.945312 396.363281 C 122.324219 409.367188 105.640625 410.714844 105.734375 399.449219 C 105.769531 394.976562 108.257812 392.777344 122.894531 384.3125 C 132.308594 378.867188 145.007812 370.644531 151.109375 366.042969 C 163.660156 356.582031 169.542969 355.671875 180.859375 361.441406 C 193.835938 368.050781 200.878906 375.117188 200.878906 381.515625 C 200.878906 384.6875 200.027344 387.28125 198.992188 387.28125 C 197.953125 387.28125 189.523438 395.878906 180.253906 406.390625 L 163.398438 425.496094 L 172.035156 431.210938 C 188.304688 441.972656 190.164062 449.570312 182.039062 472.074219 C 179.3125 479.625 177.078125 486.363281 177.078125 487.046875 C 177.078125 487.730469 183.296875 488.292969 190.894531 488.292969 C 206.640625 488.292969 240.734375 492.734375 268.015625 498.339844 C 278.226562 500.441406 287.375 502.15625 288.347656 502.15625 C 289.316406 502.15625 290.113281 489.679688 290.113281 474.429688 C 290.113281 449.335938 289.78125 446.703125 286.640625 446.714844 C 284.734375 446.71875 269.339844 449.832031 252.433594 453.632812 C 216.511719 461.703125 213.238281 461.894531 202.65625 456.5 C 195.9375 453.078125 194.78125 451.597656 195.300781 447.09375 C 195.914062 441.773438 196.113281 441.710938 241.1875 432.582031 C 266.085938 427.539062 287.351562 422.523438 288.441406 421.433594 C 289.53125 420.34375 290.128906 416.894531 289.773438 413.765625 C 289.175781 408.554688 288.539062 408.136719 282.179688 408.753906 C 278.363281 409.125 273.585938 410.90625 271.5625 412.714844 C 266.472656 417.257812 252.03125 417.054688 246.84375 412.363281 C 241.945312 407.9375 234.796875 390.945312 226.707031 364.503906 C 223.375 353.613281 218.957031 342.699219 216.894531 340.25 C 209.257812 331.199219 216.917969 324.109375 231.742188 326.511719 C 238 327.527344 285.695312 319.695312 290.203125 316.917969 C 291.242188 316.273438 292.097656 312.316406 292.097656 308.121094 L 292.097656 300.496094 L 281.683594 303.261719 C 266.761719 307.230469 255.921875 306.839844 249.914062 302.117188 C 243.894531 297.390625 244.675781 290.761719 251.453125 289.0625 C 253.925781 288.445312 263.855469 286.003906 273.527344 283.636719 C 290.621094 279.457031 291.121094 279.171875 291.699219 273.246094 C 292.0625 269.554688 290.890625 265.445312 288.726562 262.824219 C 285.226562 258.585938 284.796875 258.554688 267.351562 261.097656 L 249.546875 263.699219 L 247.964844 272.507812 C 243.234375 298.871094 238.167969 308.058594 228.363281 308.058594 C 219.941406 308.058594 215.503906 305.128906 212.980469 297.902344 C 209.09375 286.757812 210.382812 278.417969 218.121094 264.648438 C 223.117188 255.769531 225.804688 248.140625 226.550781 240.71875 C 227.554688 230.730469 228.082031 229.777344 232.914062 229.21875 C 237 228.746094 239.398438 230.207031 243.636719 235.757812 C 249.039062 242.832031 249.214844 242.894531 260.183594 241.640625 C 266.285156 240.945312 295.515625 235.554688 325.144531 229.65625 C 354.785156 223.753906 382 218.929688 385.644531 218.933594 C 394.609375 218.945312 403.296875 224.636719 412.945312 236.820312 C 425.054688 252.121094 423.5625 262.5 409.242188 262.5 C 400.234375 262.5 367.957031 277.648438 366.378906 282.621094 C 364.726562 287.820312 360.132812 289.746094 345.558594 291.351562 C 326.328125 293.472656 323.839844 294.8125 323.839844 303.054688 C 323.839844 311.5 324.40625 311.566406 348.730469 305.90625 C 375.984375 299.566406 376.417969 299.53125 383.285156 303.078125 C 392.761719 307.972656 407.128906 323.078125 407.128906 328.148438 C 407.128906 330.539062 405.878906 333.90625 404.351562 335.625 C 402.824219 337.347656 399.152344 344.546875 396.1875 351.625 C 386.371094 375.09375 373.59375 398.8125 369.066406 401.980469 C 362.972656 406.242188 355.136719 405.898438 349.023438 401.097656 C 344.917969 397.871094 342.261719 397.347656 335.371094 398.398438 C 330.667969 399.113281 325.703125 400.582031 324.335938 401.65625 C 321.488281 403.898438 320.984375 414.230469 323.644531 415.875 C 326.589844 417.691406 357.976562 411.09375 366.042969 406.964844 C 386.964844 396.242188 426.453125 410.875 422.207031 427.777344 C 420.480469 434.648438 414.183594 436.789062 395.597656 436.8125 C 368.015625 436.847656 323.058594 440.792969 321.449219 443.320312 C 320.617188 444.632812 319.867188 455.507812 319.785156 467.492188 C 319.703125 479.472656 318.941406 493.496094 318.09375 498.652344 C 316.304688 509.496094 313.808594 507.992188 343.609375 514.023438 C 380.867188 521.558594 401.695312 523.914062 431.257812 523.925781 C 447.253906 523.933594 461.757812 524.476562 463.480469 525.140625 C 465.207031 525.800781 466.617188 528.53125 466.617188 531.210938 C 466.617188 535.324219 464.394531 537.101562 452.242188 542.6875 C 435.105469 550.566406 409.351562 558.59375 388.328125 562.613281 C 379.933594 564.21875 372.921875 565.425781 372.742188 565.300781 C 372.566406 565.171875 370.695312 564.628906 368.582031 564.09375 Z M 289.625 386.828125 C 292.316406 384.640625 293.023438 376.097656 290.617188 374.871094 C 289.796875 374.453125 283.679688 374.621094 277.027344 375.25 L 264.921875 376.386719 L 268.464844 384.679688 L 272.003906 392.976562 L 279.574219 390.910156 C 283.738281 389.777344 288.261719 387.941406 289.625 386.828125 Z M 339.277344 378.085938 C 341.988281 377.363281 344.988281 374.074219 346.726562 369.925781 C 350.550781 360.777344 358.042969 329.679688 356.734375 328.375 C 354.511719 326.152344 324.074219 332.296875 322.960938 335.195312 C 321.179688 339.828125 323.527344 341.726562 331.042969 341.726562 C 340.308594 341.726562 350.585938 351.34375 348.488281 358.050781 C 346.648438 363.945312 344.472656 365.183594 333.304688 366.699219 C 324.042969 367.953125 319.726562 372.347656 322.828125 377.359375 C 324.207031 379.585938 332.335938 379.945312 339.277344 378.085938 Z M 277.625 356.574219 C 289.371094 353.089844 292.996094 349.511719 291.363281 343.019531 L 290.183594 338.320312 L 273.792969 341.589844 C 264.773438 343.390625 257.554688 345.71875 257.746094 346.761719 C 260.429688 361.433594 260.734375 361.582031 277.625 356.574219 Z M 347.789062 264.289062 C 352.277344 265.632812 356.179688 266.445312 356.460938 266.097656 C 363.433594 257.558594 369.140625 247.539062 367.796875 246.195312 C 366.136719 244.539062 320.519531 251.277344 318.28125 253.511719 C 317.699219 254.09375 318.152344 254.574219 319.292969 254.574219 C 320.433594 254.574219 322.433594 257.144531 323.734375 260.285156 C 325.976562 265.6875 326.46875 265.886719 332.867188 263.921875 C 337.800781 262.410156 341.839844 262.511719 347.789062 264.289062 Z M 167.253906 302.941406 C 156.945312 298.476562 139.507812 284.351562 133.953125 275.960938 C 126.144531 264.179688 128.214844 262.496094 150.535156 262.496094 L 169.722656 262.496094 L 179.351562 272.117188 C 188.359375 281.109375 188.984375 282.394531 188.984375 291.851562 C 188.984375 299.828125 188.171875 302.402344 185.148438 304.019531 C 180.003906 306.769531 175.457031 306.496094 167.253906 302.941406 Z M 167.253906 302.941406 " fill-opacity="1" fill-rule="nonzero"/></g><g fill="#fffaef" fill-opacity="1"><g transform="translate(58.570312, 697.050034)"><g><path d="M 18.234375 0.59375 C 14.472656 0.59375 11.394531 -0.0351562 9 -1.296875 C 6.601562 -2.554688 4.929688 -4.394531 3.984375 -6.8125 C 3.046875 -9.226562 2.878906 -12.15625 3.484375 -15.59375 C 3.796875 -17.320312 4.160156 -19.164062 4.578125 -21.125 C 5.003906 -23.082031 5.4375 -24.941406 5.875 -26.703125 C 6.675781 -30.054688 8.066406 -32.910156 10.046875 -35.265625 C 12.023438 -37.628906 14.492188 -39.441406 17.453125 -40.703125 C 20.421875 -41.960938 23.742188 -42.59375 27.421875 -42.59375 C 30.378906 -42.59375 32.90625 -42.210938 35 -41.453125 C 37.101562 -40.691406 38.785156 -39.703125 40.046875 -38.484375 C 41.304688 -37.265625 42.164062 -35.9375 42.625 -34.5 C 43.082031 -33.0625 43.210938 -31.660156 43.015625 -30.296875 C 42.941406 -29.941406 42.753906 -29.644531 42.453125 -29.40625 C 42.148438 -29.164062 41.816406 -29.046875 41.453125 -29.046875 L 33.953125 -29.046875 C 33.554688 -29.046875 33.265625 -29.125 33.078125 -29.28125 C 32.898438 -29.4375 32.753906 -29.675781 32.640625 -30 C 32.554688 -30.675781 32.285156 -31.394531 31.828125 -32.15625 C 31.367188 -32.914062 30.660156 -33.546875 29.703125 -34.046875 C 28.742188 -34.546875 27.421875 -34.796875 25.734375 -34.796875 C 23.253906 -34.796875 21.132812 -34.132812 19.375 -32.8125 C 17.613281 -31.5 16.375 -29.363281 15.65625 -26.40625 C 15.257812 -24.675781 14.867188 -22.929688 14.484375 -21.171875 C 14.109375 -19.421875 13.757812 -17.664062 13.4375 -15.90625 C 12.875 -12.820312 13.203125 -10.597656 14.421875 -9.234375 C 15.648438 -7.878906 17.523438 -7.203125 20.046875 -7.203125 C 21.679688 -7.203125 23.207031 -7.488281 24.625 -8.0625 C 26.050781 -8.644531 27.269531 -9.546875 28.28125 -10.765625 C 29.300781 -11.984375 30.015625 -13.554688 30.421875 -15.484375 L 30.71875 -16.984375 L 24.234375 -16.984375 C 23.796875 -16.984375 23.46875 -17.128906 23.25 -17.421875 C 23.03125 -17.722656 22.976562 -18.078125 23.09375 -18.484375 L 23.875 -22.3125 C 23.957031 -22.757812 24.164062 -23.117188 24.5 -23.390625 C 24.84375 -23.671875 25.238281 -23.8125 25.6875 -23.8125 L 40.375 -23.8125 C 40.820312 -23.8125 41.15625 -23.671875 41.375 -23.390625 C 41.59375 -23.117188 41.660156 -22.757812 41.578125 -22.3125 L 40.203125 -15.78125 C 39.484375 -12.34375 38.09375 -9.398438 36.03125 -6.953125 C 33.96875 -4.515625 31.414062 -2.644531 28.375 -1.34375 C 25.332031 -0.0507812 21.953125 0.59375 18.234375 0.59375 Z M 18.234375 0.59375 "/></g></g></g><g fill="#fffaef" fill-opacity="1"><g transform="translate(101.170266, 697.050034)"><g><path d="M 2.15625 0 C 1.71875 0 1.390625 -0.140625 1.171875 -0.421875 C 0.953125 -0.703125 0.878906 -1.0625 0.953125 -1.5 L 9.234375 -40.5 C 9.316406 -40.9375 9.523438 -41.296875 9.859375 -41.578125 C 10.203125 -41.859375 10.597656 -42 11.046875 -42 L 38.21875 -42 C 38.65625 -42 38.984375 -41.859375 39.203125 -41.578125 C 39.429688 -41.296875 39.503906 -40.9375 39.421875 -40.5 L 38.453125 -35.703125 C 38.335938 -35.265625 38.109375 -34.90625 37.765625 -34.625 C 37.429688 -34.34375 37.039062 -34.203125 36.59375 -34.203125 L 17.21875 -34.203125 L 15.1875 -24.84375 L 33.296875 -24.84375 C 33.734375 -24.84375 34.0625 -24.703125 34.28125 -24.421875 C 34.507812 -24.140625 34.582031 -23.78125 34.5 -23.34375 L 33.546875 -18.90625 C 33.460938 -18.5 33.25 -18.144531 32.90625 -17.84375 C 32.570312 -17.550781 32.179688 -17.40625 31.734375 -17.40625 L 13.625 -17.40625 L 11.578125 -7.796875 L 31.4375 -7.796875 C 31.875 -7.796875 32.203125 -7.65625 32.421875 -7.375 C 32.648438 -7.09375 32.722656 -6.734375 32.640625 -6.296875 L 31.625 -1.5 C 31.539062 -1.0625 31.328125 -0.703125 30.984375 -0.421875 C 30.648438 -0.140625 30.257812 0 29.8125 0 Z M 2.15625 0 "/></g></g></g><g fill="#fffaef" fill-opacity="1"><g transform="translate(138.970225, 697.050034)"><g><path d="M 2.15625 0 C 1.71875 0 1.390625 -0.140625 1.171875 -0.421875 C 0.953125 -0.703125 0.878906 -1.0625 0.953125 -1.5 L 9.234375 -40.5 C 9.316406 -40.9375 9.523438 -41.296875 9.859375 -41.578125 C 10.203125 -41.859375 10.578125 -42 10.984375 -42 L 16.5 -42 C 17.101562 -42 17.515625 -41.867188 17.734375 -41.609375 C 17.953125 -41.347656 18.082031 -41.117188 18.125 -40.921875 L 28.859375 -15.78125 L 34.140625 -40.5 C 34.222656 -40.9375 34.429688 -41.296875 34.765625 -41.578125 C 35.109375 -41.859375 35.476562 -42 35.875 -42 L 42 -42 C 42.4375 -42 42.765625 -41.859375 42.984375 -41.578125 C 43.203125 -41.296875 43.273438 -40.9375 43.203125 -40.5 L 34.921875 -1.5 C 34.835938 -1.101562 34.625 -0.753906 34.28125 -0.453125 C 33.945312 -0.148438 33.582031 0 33.1875 0 L 27.71875 0 C 27.113281 0 26.691406 -0.140625 26.453125 -0.421875 C 26.210938 -0.703125 26.054688 -0.921875 25.984375 -1.078125 L 15.234375 -25.5 L 10.078125 -1.5 C 9.992188 -1.0625 9.78125 -0.703125 9.4375 -0.421875 C 9.101562 -0.140625 8.71875 0 8.28125 0 Z M 2.15625 0 "/></g></g></g><g fill="#fffaef" fill-opacity="1"><g transform="translate(181.810185, 697.050034)"><g><path d="M 2.15625 0 C 1.71875 0 1.390625 -0.140625 1.171875 -0.421875 C 0.953125 -0.703125 0.878906 -1.0625 0.953125 -1.5 L 9.234375 -40.5 C 9.316406 -40.9375 9.523438 -41.296875 9.859375 -41.578125 C 10.203125 -41.859375 10.597656 -42 11.046875 -42 L 38.21875 -42 C 38.65625 -42 38.984375 -41.859375 39.203125 -41.578125 C 39.429688 -41.296875 39.503906 -40.9375 39.421875 -40.5 L 38.453125 -35.703125 C 38.335938 -35.265625 38.109375 -34.90625 37.765625 -34.625 C 37.429688 -34.34375 37.039062 -34.203125 36.59375 -34.203125 L 17.21875 -34.203125 L 15.1875 -24.84375 L 33.296875 -24.84375 C 33.734375 -24.84375 34.0625 -24.703125 34.28125 -24.421875 C 34.507812 -24.140625 34.582031 -23.78125 34.5 -23.34375 L 33.546875 -18.90625 C 33.460938 -18.5 33.25 -18.144531 32.90625 -17.84375 C 32.570312 -17.550781 32.179688 -17.40625 31.734375 -17.40625 L 13.625 -17.40625 L 11.578125 -7.796875 L 31.4375 -7.796875 C 31.875 -7.796875 32.203125 -7.65625 32.421875 -7.375 C 32.648438 -7.09375 32.722656 -6.734375 32.640625 -6.296875 L 31.625 -1.5 C 31.539062 -1.0625 31.328125 -0.703125 30.984375 -0.421875 C 30.648438 -0.140625 30.257812 0 29.8125 0 Z M 2.15625 0 "/></g></g></g><g fill="#fffaef" fill-opacity="1"><g transform="translate(219.610144, 697.050034)"><g><path d="M 16.375 0.59375 C 12.539062 0.59375 9.390625 0.046875 6.921875 -1.046875 C 4.460938 -2.148438 2.703125 -3.609375 1.640625 -5.421875 C 0.585938 -7.242188 0.222656 -9.175781 0.546875 -11.21875 C 0.578125 -11.582031 0.722656 -11.882812 0.984375 -12.125 C 1.242188 -12.363281 1.554688 -12.484375 1.921875 -12.484375 L 8.515625 -12.484375 C 9.035156 -12.484375 9.414062 -12.378906 9.65625 -12.171875 C 9.894531 -11.972656 10.097656 -11.71875 10.265625 -11.40625 C 10.378906 -10.675781 10.6875 -9.992188 11.1875 -9.359375 C 11.6875 -8.722656 12.414062 -8.203125 13.375 -7.796875 C 14.332031 -7.398438 15.570312 -7.203125 17.09375 -7.203125 C 19.695312 -7.203125 21.757812 -7.617188 23.28125 -8.453125 C 24.800781 -9.296875 25.722656 -10.4375 26.046875 -11.875 C 26.285156 -12.875 26.125 -13.691406 25.5625 -14.328125 C 25 -14.972656 24.003906 -15.554688 22.578125 -16.078125 C 21.160156 -16.597656 19.296875 -17.140625 16.984375 -17.703125 C 14.097656 -18.378906 11.734375 -19.273438 9.890625 -20.390625 C 8.054688 -21.515625 6.789062 -22.945312 6.09375 -24.6875 C 5.394531 -26.425781 5.300781 -28.5 5.8125 -30.90625 C 6.570312 -34.5 8.492188 -37.34375 11.578125 -39.4375 C 14.660156 -41.539062 18.660156 -42.59375 23.578125 -42.59375 C 26.140625 -42.59375 28.398438 -42.234375 30.359375 -41.515625 C 32.316406 -40.796875 33.9375 -39.851562 35.21875 -38.6875 C 36.5 -37.53125 37.425781 -36.289062 38 -34.96875 C 38.582031 -33.65625 38.753906 -32.378906 38.515625 -31.140625 C 38.472656 -30.773438 38.332031 -30.460938 38.09375 -30.203125 C 37.851562 -29.941406 37.535156 -29.8125 37.140625 -29.8125 L 30.234375 -29.8125 C 29.878906 -29.8125 29.550781 -29.890625 29.25 -30.046875 C 28.945312 -30.210938 28.738281 -30.5 28.625 -30.90625 C 28.625 -31.976562 28.101562 -32.894531 27.0625 -33.65625 C 26.019531 -34.414062 24.660156 -34.796875 22.984375 -34.796875 C 21.023438 -34.796875 19.363281 -34.445312 18 -33.75 C 16.632812 -33.050781 15.796875 -31.960938 15.484375 -30.484375 C 15.285156 -29.523438 15.414062 -28.710938 15.875 -28.046875 C 16.332031 -27.390625 17.179688 -26.8125 18.421875 -26.3125 C 19.660156 -25.8125 21.378906 -25.28125 23.578125 -24.71875 C 26.984375 -24 29.664062 -23.078125 31.625 -21.953125 C 33.582031 -20.835938 34.898438 -19.429688 35.578125 -17.734375 C 36.253906 -16.035156 36.332031 -13.984375 35.8125 -11.578125 C 34.976562 -7.578125 32.910156 -4.546875 29.609375 -2.484375 C 26.304688 -0.429688 21.894531 0.59375 16.375 0.59375 Z M 16.375 0.59375 "/></g></g></g><g fill="#fffaef" fill-opacity="1"><g transform="translate(258.730122, 697.050034)"><g><path d="M 2.09375 0 C 1.695312 0 1.378906 -0.140625 1.140625 -0.421875 C 0.898438 -0.703125 0.820312 -1.0625 0.90625 -1.5 L 9.296875 -40.5 C 9.378906 -40.9375 9.578125 -41.296875 9.890625 -41.578125 C 10.210938 -41.859375 10.597656 -42 11.046875 -42 L 17.875 -42 C 18.320312 -42 18.65625 -41.859375 18.875 -41.578125 C 19.09375 -41.296875 19.160156 -40.9375 19.078125 -40.5 L 10.734375 -1.5 C 10.660156 -1.0625 10.460938 -0.703125 10.140625 -0.421875 C 9.816406 -0.140625 9.4375 0 9 0 Z M 2.09375 0 "/></g></g></g><g fill="#fffaef" fill-opacity="1"><g transform="translate(277.390101, 697.050034)"><g><path d="M 16.375 0.59375 C 12.539062 0.59375 9.390625 0.046875 6.921875 -1.046875 C 4.460938 -2.148438 2.703125 -3.609375 1.640625 -5.421875 C 0.585938 -7.242188 0.222656 -9.175781 0.546875 -11.21875 C 0.578125 -11.582031 0.722656 -11.882812 0.984375 -12.125 C 1.242188 -12.363281 1.554688 -12.484375 1.921875 -12.484375 L 8.515625 -12.484375 C 9.035156 -12.484375 9.414062 -12.378906 9.65625 -12.171875 C 9.894531 -11.972656 10.097656 -11.71875 10.265625 -11.40625 C 10.378906 -10.675781 10.6875 -9.992188 11.1875 -9.359375 C 11.6875 -8.722656 12.414062 -8.203125 13.375 -7.796875 C 14.332031 -7.398438 15.570312 -7.203125 17.09375 -7.203125 C 19.695312 -7.203125 21.757812 -7.617188 23.28125 -8.453125 C 24.800781 -9.296875 25.722656 -10.4375 26.046875 -11.875 C 26.285156 -12.875 26.125 -13.691406 25.5625 -14.328125 C 25 -14.972656 24.003906 -15.554688 22.578125 -16.078125 C 21.160156 -16.597656 19.296875 -17.140625 16.984375 -17.703125 C 14.097656 -18.378906 11.734375 -19.273438 9.890625 -20.390625 C 8.054688 -21.515625 6.789062 -22.945312 6.09375 -24.6875 C 5.394531 -26.425781 5.300781 -28.5 5.8125 -30.90625 C 6.570312 -34.5 8.492188 -37.34375 11.578125 -39.4375 C 14.660156 -41.539062 18.660156 -42.59375 23.578125 -42.59375 C 26.140625 -42.59375 28.398438 -42.234375 30.359375 -41.515625 C 32.316406 -40.796875 33.9375 -39.851562 35.21875 -38.6875 C 36.5 -37.53125 37.425781 -36.289062 38 -34.96875 C 38.582031 -33.65625 38.753906 -32.378906 38.515625 -31.140625 C 38.472656 -30.773438 38.332031 -30.460938 38.09375 -30.203125 C 37.851562 -29.941406 37.535156 -29.8125 37.140625 -29.8125 L 30.234375 -29.8125 C 29.878906 -29.8125 29.550781 -29.890625 29.25 -30.046875 C 28.945312 -30.210938 28.738281 -30.5 28.625 -30.90625 C 28.625 -31.976562 28.101562 -32.894531 27.0625 -33.65625 C 26.019531 -34.414062 24.660156 -34.796875 22.984375 -34.796875 C 21.023438 -34.796875 19.363281 -34.445312 18 -33.75 C 16.632812 -33.050781 15.796875 -31.960938 15.484375 -30.484375 C 15.285156 -29.523438 15.414062 -28.710938 15.875 -28.046875 C 16.332031 -27.390625 17.179688 -26.8125 18.421875 -26.3125 C 19.660156 -25.8125 21.378906 -25.28125 23.578125 -24.71875 C 26.984375 -24 29.664062 -23.078125 31.625 -21.953125 C 33.582031 -20.835938 34.898438 -19.429688 35.578125 -17.734375 C 36.253906 -16.035156 36.332031 -13.984375 35.8125 -11.578125 C 34.976562 -7.578125 32.910156 -4.546875 29.609375 -2.484375 C 26.304688 -0.429688 21.894531 0.59375 16.375 0.59375 Z M 16.375 0.59375 "/></g></g></g><g fill="#fffaef" fill-opacity="1"><g transform="translate(258.098793, 111.450072)"><g><path d="M 2.15625 0 C 1.71875 0 1.390625 -0.140625 1.171875 -0.421875 C 0.953125 -0.703125 0.878906 -1.0625 0.953125 -1.5 L 9.234375 -40.5 C 9.316406 -40.9375 9.523438 -41.296875 9.859375 -41.578125 C 10.203125 -41.859375 10.597656 -42 11.046875 -42 L 17.640625 -42 C 18.078125 -42 18.40625 -41.859375 18.625 -41.578125 C 18.84375 -41.296875 18.914062 -40.9375 18.84375 -40.5 L 15.65625 -25.5 L 31.859375 -25.5 L 35.046875 -40.5 C 35.117188 -40.9375 35.328125 -41.296875 35.671875 -41.578125 C 36.015625 -41.859375 36.40625 -42 36.84375 -42 L 43.4375 -42 C 43.875 -42 44.203125 -41.859375 44.421875 -41.578125 C 44.648438 -41.296875 44.722656 -40.9375 44.640625 -40.5 L 36.296875 -1.5 C 36.222656 -1.0625 36.023438 -0.703125 35.703125 -0.421875 C 35.378906 -0.140625 35 0 34.5625 0 L 27.953125 0 C 27.515625 0 27.1875 -0.140625 26.96875 -0.421875 C 26.75 -0.703125 26.679688 -1.0625 26.765625 -1.5 L 30.0625 -16.984375 L 13.859375 -16.984375 L 10.5 -1.5 C 10.414062 -1.0625 10.210938 -0.703125 9.890625 -0.421875 C 9.578125 -0.140625 9.203125 0 8.765625 0 Z M 2.15625 0 "/></g></g></g><g fill="#fffaef" fill-opacity="1"><g transform="translate(302.31875, 111.450072)"><g><path d="M -1.734375 0 C -2.210938 0 -2.539062 -0.195312 -2.71875 -0.59375 C -2.90625 -1 -2.878906 -1.398438 -2.640625 -1.796875 L 19.796875 -40.375 C 20.035156 -40.820312 20.351562 -41.203125 20.75 -41.515625 C 21.15625 -41.835938 21.675781 -42 22.3125 -42 L 30.421875 -42 C 31.054688 -42 31.523438 -41.835938 31.828125 -41.515625 C 32.128906 -41.203125 32.300781 -40.820312 32.34375 -40.375 L 38.40625 -1.796875 C 38.519531 -1.234375 38.425781 -0.789062 38.125 -0.46875 C 37.832031 -0.15625 37.460938 0 37.015625 0 L 30.84375 0 C 30.28125 0 29.867188 -0.140625 29.609375 -0.421875 C 29.347656 -0.703125 29.195312 -1.019531 29.15625 -1.375 L 27.953125 -7.921875 L 11.046875 -7.921875 L 7.015625 -1.203125 C 6.859375 -0.921875 6.609375 -0.648438 6.265625 -0.390625 C 5.929688 -0.128906 5.484375 0 4.921875 0 Z M 14.9375 -15.65625 L 27.359375 -15.65625 L 24.78125 -32.875 Z M 14.9375 -15.65625 "/></g></g></g><g fill="#fffaef" fill-opacity="1"><g transform="translate(344.858703, 111.450072)"><g><path d="M 4.203125 -14.09375 C 3.765625 -14.09375 3.441406 -14.234375 3.234375 -14.515625 C 3.035156 -14.796875 2.976562 -15.15625 3.0625 -15.59375 L 4.078125 -20.40625 C 4.160156 -20.84375 4.367188 -21.203125 4.703125 -21.484375 C 5.046875 -21.765625 5.414062 -21.90625 5.8125 -21.90625 L 24.484375 -21.90625 C 24.878906 -21.90625 25.195312 -21.765625 25.4375 -21.484375 C 25.675781 -21.203125 25.738281 -20.84375 25.625 -20.40625 L 24.59375 -15.59375 C 24.519531 -15.15625 24.3125 -14.796875 23.96875 -14.515625 C 23.625 -14.234375 23.234375 -14.09375 22.796875 -14.09375 Z M 4.203125 -14.09375 "/></g></g></g><g fill="#fffaef" fill-opacity="1"><g transform="translate(373.538671, 111.450072)"><g><path d="M 2.15625 0 C 1.71875 0 1.390625 -0.140625 1.171875 -0.421875 C 0.953125 -0.703125 0.878906 -1.0625 0.953125 -1.5 L 9.234375 -40.5 C 9.316406 -40.9375 9.523438 -41.296875 9.859375 -41.578125 C 10.203125 -41.859375 10.597656 -42 11.046875 -42 L 28.265625 -42 C 31.378906 -42 33.945312 -41.519531 35.96875 -40.5625 C 37.988281 -39.601562 39.425781 -38.242188 40.28125 -36.484375 C 41.144531 -34.722656 41.335938 -32.660156 40.859375 -30.296875 C 40.492188 -28.734375 39.921875 -27.390625 39.140625 -26.265625 C 38.367188 -25.148438 37.519531 -24.242188 36.59375 -23.546875 C 35.675781 -22.847656 34.816406 -22.335938 34.015625 -22.015625 C 35.421875 -21.210938 36.539062 -20 37.375 -18.375 C 38.21875 -16.757812 38.398438 -14.816406 37.921875 -12.546875 C 37.398438 -10.023438 36.457031 -7.820312 35.09375 -5.9375 C 33.738281 -4.0625 31.921875 -2.601562 29.640625 -1.5625 C 27.359375 -0.519531 24.539062 0 21.1875 0 Z M 11.703125 -7.078125 L 20.875 -7.078125 C 22.757812 -7.078125 24.34375 -7.625 25.625 -8.71875 C 26.90625 -9.820312 27.703125 -11.113281 28.015625 -12.59375 C 28.378906 -14.15625 28.207031 -15.46875 27.5 -16.53125 C 26.800781 -17.59375 25.394531 -18.125 23.28125 -18.125 L 14.09375 -18.125 Z M 15.546875 -25.015625 L 24 -25.015625 C 25.84375 -25.015625 27.363281 -25.484375 28.5625 -26.421875 C 29.757812 -27.367188 30.539062 -28.582031 30.90625 -30.0625 C 31.175781 -31.539062 30.984375 -32.71875 30.328125 -33.59375 C 29.671875 -34.476562 28.421875 -34.921875 26.578125 -34.921875 L 17.640625 -34.921875 Z M 15.546875 -25.015625 "/></g></g></g><g fill="#fffaef" fill-opacity="1"><g transform="translate(415.29863, 111.450072)"><g><path d="M 2.09375 0 C 1.695312 0 1.378906 -0.140625 1.140625 -0.421875 C 0.898438 -0.703125 0.820312 -1.0625 0.90625 -1.5 L 9.296875 -40.5 C 9.378906 -40.9375 9.578125 -41.296875 9.890625 -41.578125 C 10.210938 -41.859375 10.597656 -42 11.046875 -42 L 17.875 -42 C 18.320312 -42 18.65625 -41.859375 18.875 -41.578125 C 19.09375 -41.296875 19.160156 -40.9375 19.078125 -40.5 L 10.734375 -1.5 C 10.660156 -1.0625 10.460938 -0.703125 10.140625 -0.421875 C 9.816406 -0.140625 9.4375 0 9 0 Z M 2.09375 0 "/></g></g></g><g fill="#fffaef" fill-opacity="1"><g transform="translate(433.958609, 111.450072)"><g><path d="M 11.28125 0 C 10.882812 0 10.5625 -0.140625 10.3125 -0.421875 C 10.070312 -0.703125 9.992188 -1.0625 10.078125 -1.5 L 16.921875 -33.59375 L 6.0625 -33.59375 C 5.625 -33.59375 5.289062 -33.734375 5.0625 -34.015625 C 4.84375 -34.296875 4.773438 -34.65625 4.859375 -35.09375 L 6 -40.5 C 6.082031 -40.9375 6.289062 -41.296875 6.625 -41.578125 C 6.96875 -41.859375 7.359375 -42 7.796875 -42 L 39.234375 -42 C 39.679688 -42 40.015625 -41.859375 40.234375 -41.578125 C 40.453125 -41.296875 40.519531 -40.9375 40.4375 -40.5 L 39.296875 -35.09375 C 39.222656 -34.65625 39.015625 -34.296875 38.671875 -34.015625 C 38.328125 -33.734375 37.9375 -33.59375 37.5 -33.59375 L 26.640625 -33.59375 L 19.734375 -1.5 C 19.660156 -1.0625 19.460938 -0.703125 19.140625 -0.421875 C 18.816406 -0.140625 18.4375 0 18 0 Z M 11.28125 0 "/></g></g></g></svg>